<svg viewBox="-1 0 512 512.00002" xmlns="http://www.w3.org/2000/svg" width="300" height="300" version="1.1" xmlns:xlink="http://www.w3.org/1999/xlink" xmlns:svgjs="http://svgjs.dev/svgjs"><g width="100%" height="100%" transform="matrix(1,0,0,1,0,0)"><path d="m270.402344 240.46875h119.734375v29.933594h-119.734375zm0 0" fill="#fd7850" fill-opacity="1" data-original-color="#000000ff" stroke="none" stroke-opacity="1"/><path d="m510.867188 0h-510.867188v450.003906h270.25l61.996094 61.996094 61.980468-61.996094h116.644532v-450.003906zm-29.933594 29.933594v90.800781h-451v-90.800781zm-203.417969 300.335937h112.621094v-29.933593h-119.734375v22.816406l-10.128906-10.128906-19.804688-31.53125v-70.957032h179.601562v149.667969h-112.621093zm-66.980469-80.554687-66.589844-14.140625-24.269531 24.296875 14.847657 71.753906 1.3125 6.636719 34.9375 21.941406h-79.972657v-149.667969h119.734375zm-6.507812 96.027344-41.390625-26-5.140625-24.824219 24.941406 24.941406 21.164062-21.167969-25.175781-25.175781 25.027344 5.324219 26.03125 41.445312zm44.480468-2.148438 21.167969 21.167969-21.171875 21.167969-21.164062-21.167969zm83.734376 126.070312-62.570313-62.570312 21.167969-21.167969 62.566406 62.574219zm35.070312-49.59375-29.933594-29.933593h112.625v-209.535157h-389.136718v209.535157h149.515624l29.933594 29.933593h-210.382812v-269.402343h451v269.402343zm0 0" fill="#fd7850" fill-opacity="1" data-original-color="#000000ff" stroke="none" stroke-opacity="1"/><path d="m195.566406 60.863281h254.4375v29.9375h-254.4375zm0 0" fill="#fd7850" fill-opacity="1" data-original-color="#000000ff" stroke="none" stroke-opacity="1"/><path d="m60.863281 60.863281h29.9375v29.9375h-29.9375zm0 0" fill="#fd7850" fill-opacity="1" data-original-color="#000000ff" stroke="none" stroke-opacity="1"/><path d="m120.734375 60.863281h29.933594v29.9375h-29.933594zm0 0" fill="#fd7850" fill-opacity="1" data-original-color="#000000ff" stroke="none" stroke-opacity="1"/></g></svg>