<svg id="Layer_1" enable-background="new 0 0 512 512" viewBox="0 0 512 512" xmlns="http://www.w3.org/2000/svg" width="300" height="300" version="1.1" xmlns:xlink="http://www.w3.org/1999/xlink" xmlns:svgjs="http://svgjs.dev/svgjs"><g width="100%" height="100%" transform="matrix(1,0,0,1,0,0)"><path d="m103.92 339.42h-49.35c-4.9 0-9.38 1.98-12.61 5.24-3.23 3.23-5.24 7.68-5.24 12.59v36.28c0 4.9 2.01 9.38 5.24 12.61s7.71 5.24 12.61 5.24h10.97c.23-.03.43-.03.62-.03.23 0 .43 0 .65.03h24.55 12.56zm-18.54 83.96h-13.21v43.77c0 2.32.82 4.37 2.13 5.81 1.19 1.3 2.75 2.1 4.48 2.1h6.6zm120.73-70.84v45.69c3.69-1.25 7-3.4 9.64-6.24 4.03-4.28 6.49-10.15 6.49-16.61s-2.47-12.3-6.49-16.61c-2.67-2.8-5.96-4.95-9.64-6.23zm-39.06 93.6v-141.51l-29.11 18.14c-.2.14-.43.26-.62.37l-21.37 13.32v77.87zm19.53 15.93c2.07 0 3.94-.85 5.3-2.21 1.39-1.39 2.21-3.26 2.21-5.33v-49.21-.03-.03-112.79c0-2.07-.82-3.94-2.21-5.3-1.36-1.36-3.23-2.21-5.3-2.21s-3.94.85-5.3 2.21-2.21 3.23-2.21 5.3v162.06c0 2.07.85 3.94 2.21 5.33 1.36 1.36 3.23 2.21 5.3 2.21zm244.14-129.71h-26.02-77.5c-1.28 0-2.44.51-3.29 1.36s-1.39 2.01-1.39 3.29v68.26 35.26c0 1.28.54 2.44 1.39 3.29s2.01 1.39 3.29 1.39h103.52c1.28 0 2.44-.54 3.29-1.39s1.36-2.01 1.36-3.29v-103.52c0-1.28-.51-2.44-1.36-3.29s-2.01-1.36-3.29-1.36zm-33.27 44.67c-4.73-4.73-11.28-7.65-18.48-7.65-7.23 0-13.75 2.92-18.48 7.65s-7.65 11.25-7.65 18.48 2.92 13.75 7.65 18.48 11.25 7.65 18.48 7.65c7.2 0 13.75-2.92 18.48-7.65 4.71-4.73 7.65-11.25 7.65-18.48s-2.95-13.74-7.65-18.48zm-18.49-19.64c10.52 0 20.07 4.25 26.96 11.17 6.89 6.89 11.17 16.44 11.17 26.96s-4.28 20.07-11.17 26.96c-6.89 6.92-16.44 11.17-26.96 11.17-10.54 0-20.07-4.25-26.96-11.17-6.92-6.89-11.17-16.44-11.17-26.96s4.25-20.07 11.17-26.96c6.89-6.92 16.42-11.17 26.96-11.17zm-39.37-.48c-3.32 0-6.01-2.66-6.01-5.98s2.69-6.01 6.01-6.01h4.48c3.29 0 5.98 2.69 5.98 6.01s-2.69 5.98-5.98 5.98zm-135.72-236.05h-69.42-51.42c-.88 0-1.7.37-2.3.96-.6.6-.96 1.42-.96 2.3v90.03c0 .88.37 1.7.96 2.3.6.6 1.42.96 2.3.96h51.42 69.42c.88 0 1.7-.37 2.3-.96.6-.6.96-1.42.96-2.3v-90.03c0-.88-.37-1.7-.96-2.3-.6-.59-1.42-.96-2.3-.96zm-60.35 59.19 18.26-10.91-35.97-21.51v43.06zm32.88-5.72-53.55 32.03c-2.83 1.7-6.49.77-8.19-2.07-.57-.96-.85-2.01-.85-3.06h-.03v-64.18c0-3.32 2.69-6.01 6.01-6.01 1.3 0 2.49.43 3.49 1.13l53.21 31.83c2.83 1.7 3.74 5.36 2.07 8.19-.57.92-1.31 1.63-2.16 2.14zm274.88-61.94-20.32-20.35-8.02 8.28 20.35 20.35zm-11.99-28.97 20.32 20.32c4.05-4.17 8.11-8.36 12.13-12.56 2.04-2.13 3.03-4.9 2.98-7.65-.06-2.72-1.13-5.41-3.23-7.48l-.06-.03-5.22-5.02c-2.13-2.07-4.9-3.06-7.65-3s-5.47 1.16-7.54 3.32zm-114.67 155.05-.43-.51c-1.87-2.18-3.88-4.39-6.07-6.58-2.61-2.61-5.19-4.93-7.74-7.03-.68-.57-1.39-1.13-2.13-1.7l-7.06 22.48zm-10.12-26.1c1.16.88 2.32 1.81 3.49 2.75 3.09 2.52 5.95 5.13 8.62 7.8 2.3 2.3 4.54 4.73 6.72 7.31.6.71 1.19 1.42 1.76 2.15 21.57-22.28 43.17-44.56 64.74-66.84.34-.45.77-.88 1.22-1.22 11.28-11.68 22.59-23.36 33.9-35.04l-20.35-20.35-5.27 5.47c-.2.23-.4.43-.62.62zm26.17-80.05c-3.29 0-5.98-2.69-5.98-6.01s2.69-5.98 5.98-5.98h12.87c3.32 0 6.01 2.66 6.01 5.98s-2.69 6.01-6.01 6.01zm-98.19 0c-3.32 0-6.01-2.69-6.01-6.01s2.69-5.98 6.01-5.98h70.33c3.32 0 5.98 2.66 5.98 5.98s-2.66 6.01-5.98 6.01zm0 42.32c-3.32 0-6.01-2.66-6.01-5.98s2.69-6.01 6.01-6.01h67.15c3.32 0 6.01 2.69 6.01 6.01s-2.69 5.98-6.01 5.98zm0 42.35c-3.32 0-6.01-2.69-6.01-6.01s2.69-6.01 6.01-6.01h35.69c3.32 0 6.01 2.69 6.01 6.01s-2.69 6.01-6.01 6.01zm12.24-127.02c-3.32 0-5.98-2.66-5.98-5.98s2.66-6.01 5.98-6.01h122.46c3.32 0 6.01 2.69 6.01 6.01s-2.69 5.98-6.01 5.98zm41.73 168.97c-.99.74-2.24 1.19-3.6 1.19h-64.2c-3.32 0-5.98-2.69-5.98-5.98 0-3.32 2.66-6.01 5.98-6.01h59.07l11.34-36.14c.34-1.02.91-1.9 1.62-2.58l.23-.23c.11-.11.23-.23.31-.31l97.48-100.74v-57.66c0-1.76-.71-3.34-1.87-4.51-1.16-1.13-2.75-1.87-4.48-1.87h-245.54c-1.73 0-3.32.74-4.48 1.87-1.16 1.16-1.87 2.75-1.87 4.51v58.39h63.41c4.2 0 8.02 1.7 10.77 4.48 2.78 2.75 4.48 6.58 4.48 10.77v90.03c0 4.2-1.7 8.02-4.48 10.8-2.75 2.75-6.58 4.48-10.77 4.48h-63.41v77.64l26.7-16.61c.48-4.56 2.55-8.7 5.64-11.79 3.51-3.52 8.42-5.73 13.78-5.73 5.39 0 10.26 2.21 13.8 5.73 3.52 3.54 5.73 8.42 5.73 13.8v47.68c7.14 1.56 13.49 5.24 18.34 10.43 6.07 6.46 9.81 15.19 9.81 24.8 0 9.16-3.4 17.52-8.96 23.9h85.24v-62.28c0-4.59 1.87-8.76 4.9-11.76 3-3.03 7.17-4.9 11.76-4.9h71.49v-136.4c-20.1 20.75-40.22 41.5-60.29 62.25-.77.79-1.7 1.3-2.69 1.59zm-17.92 44.05c-3.32 0-6.01-2.69-6.01-6.01s2.69-6.01 6.01-6.01h89.74c3.32 0 5.98 2.69 5.98 6.01s-2.66 6.01-5.98 6.01zm-47.17 0c-3.32 0-5.98-2.69-5.98-6.01s2.66-6.01 5.98-6.01h17.6c3.32 0 6.01 2.69 6.01 6.01s-2.69 6.01-6.01 6.01zm-25.88-213.02c-3.32 0-6.01-2.66-6.01-5.98s2.69-6.01 6.01-6.01h20.21c3.32 0 6.01 2.69 6.01 6.01s-2.69 5.98-6.01 5.98z" fill="#fd7850" fill-opacity="1" data-original-color="#000000ff" stroke="none" stroke-opacity="1"/></g></svg>