<svg id="Layer_1" enable-background="new 0 0 66 66" height="300" viewBox="0 0 66 66" width="300" xmlns="http://www.w3.org/2000/svg" version="1.1" xmlns:xlink="http://www.w3.org/1999/xlink" xmlns:svgjs="http://svgjs.dev/svgjs"><g width="100%" height="100%" transform="matrix(1,0,0,1,0,0)"><g style="fill:none;stroke:#000;stroke-width:1.5;stroke-linecap:round;stroke-linejoin:round;stroke-miterlimit:10"><path d="m34.9 28.9-1.8 7c-.3 1-1.2 1.8-2.2 1.8h-13.6c-1.3 0-2.3-1-2.3-2.3v-8.9h-2c-1 0-1.9-.8-1.9-1.9 0-1 .8-1.9 1.9-1.9h3.4c1.2 0 2.2 1 2.2 2.2v1.1h14.2c1.4 0 2.5 1.4 2.1 2.9z" fill="none" fill-opacity="1" stroke="#fd7850" stroke-opacity="1" data-original-stroke-color="#000000ff" stroke-width="2" data-original-stroke-width="2"/><circle cx="18.5" cy="40.6" r="2.9" fill="none" fill-opacity="1" stroke="#fd7850" stroke-opacity="1" data-original-stroke-color="#000000ff" stroke-width="2" data-original-stroke-width="2"/><circle cx="29.9" cy="40.6" r="2.9" fill="none" fill-opacity="1" stroke="#fd7850" stroke-opacity="1" data-original-stroke-color="#000000ff" stroke-width="2" data-original-stroke-width="2"/><path d="m49.9 44.9c4.1 1.8 11.5 7.5 12.8 8.9 1.7 1.7 1.7 4.5 0 6.2s-4.5 1.7-6.2 0c-1.3-1.3-7.1-8.7-8.9-12.8" fill="none" fill-opacity="1" stroke="#fd7850" stroke-opacity="1" data-original-stroke-color="#000000ff" stroke-width="2" data-original-stroke-width="2"/><path d="m33.7 23.1c5-2 11-1 15.1 3.1 5.5 5.5 5.5 14.3 0 19.8-5.3 5.3-13.8 5.5-19.3.4" fill="none" fill-opacity="1" stroke="#fd7850" stroke-opacity="1" data-original-stroke-color="#000000ff" stroke-width="2" data-original-stroke-width="2"/><path d="m37.6 26.4c2.9-.4 6 .5 8.2 2.8 3.9 3.9 3.9 10.1 0 13.9-3.2 3.2-8 3.7-11.8 1.6" fill="none" fill-opacity="1" stroke="#fd7850" stroke-opacity="1" data-original-stroke-color="#000000ff" stroke-width="2" data-original-stroke-width="2"/><path d="m57.9 45.2v-38.2c0-1.3-1-2.3-2.3-2.3h-51.3c-1.3.1-2.3 1.1-2.3 2.3v50.7c0 1.3 1 2.3 2.3 2.3h19.9 11.1 16.2" fill="none" fill-opacity="1" stroke="#fd7850" stroke-opacity="1" data-original-stroke-color="#000000ff" stroke-width="2" data-original-stroke-width="2"/><path d="m57.9 7v8.5h-23.8c-1.1 0-2.2-.7-2.5-1.8-.4-1.1-1.4-1.8-2.5-1.8h-3.1c-1.1 0-2.2.7-2.5 1.8-.4 1.1-1.4 1.8-2.5 1.8h-19v-8.5c0-1.3 1-2.3 2.3-2.3h51.3c1.3.1 2.3 1.1 2.3 2.3z" fill="none" fill-opacity="1" stroke="#fd7850" stroke-opacity="1" data-original-stroke-color="#000000ff" stroke-width="2" data-original-stroke-width="2"/><path d="m45.1 15.5c-1.1 0-2.2-.7-2.5-1.8-.4-1.1-1.4-1.8-2.5-1.8h-3.1c-1.1 0-2.2.7-2.5 1.8-.2.7-.7 1.2-1.3 1.5" fill="none" fill-opacity="1" stroke="#fd7850" stroke-opacity="1" data-original-stroke-color="#000000ff" stroke-width="2" data-original-stroke-width="2"/><circle cx="6.9" cy="10.1" r="2" fill="none" fill-opacity="1" stroke="#fd7850" stroke-opacity="1" data-original-stroke-color="#000000ff" stroke-width="2" data-original-stroke-width="2"/><circle cx="13.1" cy="10.1" r="2" fill="none" fill-opacity="1" stroke="#fd7850" stroke-opacity="1" data-original-stroke-color="#000000ff" stroke-width="2" data-original-stroke-width="2"/><circle cx="19.4" cy="10.1" r="2" fill="none" fill-opacity="1" stroke="#fd7850" stroke-opacity="1" data-original-stroke-color="#000000ff" stroke-width="2" data-original-stroke-width="2"/></g></g></svg>