<svg version="1.1" id="Layer_1" xmlns="http://www.w3.org/2000/svg" xmlns:xlink="http://www.w3.org/1999/xlink" x="0px" y="0px" viewBox="0 0 512 512" style="enable-background:new 0 0 512 512;" xml:space="preserve" width="300" height="300" xmlns:svgjs="http://svgjs.dev/svgjs"><g width="100%" height="100%" transform="matrix(1,0,0,1,0,0)"><g>
	<g>
		<path d="M501.801,47.923H10.199C4.566,47.923,0,52.489,0,58.122V380.78c0,5.633,4.566,10.199,10.199,10.199h179.845v52.698&#10;&#9;&#9;&#9;h-36.179c-5.633,0-10.199,4.566-10.199,10.199c0,5.633,4.566,10.199,10.199,10.199h204.27v0.001&#10;&#9;&#9;&#9;c5.633,0,10.199-4.566,10.199-10.199c0-5.633-4.566-10.199-10.199-10.199h-36.179V390.98h179.845&#10;&#9;&#9;&#9;c5.633,0,10.199-4.566,10.199-10.199V58.122C512,52.489,507.434,47.923,501.801,47.923z M301.558,443.679h-91.116V390.98h91.116&#10;&#9;&#9;&#9;V443.679z M319.937,239.228v92.75H61.195V175.93h283.197v31.399c0,1.743,0.155,3.449,0.438,5.113l-21.486,19.178&#10;&#9;&#9;&#9;C321.177,233.555,319.937,236.323,319.937,239.228z M420.207,370.582h-79.872v-0.001V243.797l14.829-13.236&#10;&#9;&#9;&#9;c5.322,4.526,12.208,7.266,19.726,7.266c5.633,0,10.199-4.566,10.199-10.199c0-5.633-4.566-10.199-10.199-10.199&#10;&#9;&#9;&#9;c-1.442,0-2.812-0.309-4.053-0.856l9.435-8.422l39.935,35.645V370.582z M437.198,231.62l-50.135-44.749&#10;&#9;&#9;&#9;c-3.87-3.453-9.714-3.453-13.583,0l-8.689,7.754V175.93h86.014v156.048h-10.199v-92.75&#10;&#9;&#9;&#9;C440.606,236.323,439.366,233.555,437.198,231.62z M367.663,155.532c1.836-1.884,4.395-3.06,7.227-3.06s5.391,1.176,7.227,3.06&#10;&#9;&#9;&#9;H367.663z M491.602,370.581h-50.996v-18.206h20.398c5.633,0,10.199-4.566,10.199-10.199V165.73&#10;&#9;&#9;&#9;c0-5.633-4.566-10.199-10.199-10.199h-56.446c-3.187-13.432-15.274-23.458-29.668-23.458s-26.481,10.026-29.668,23.458H50.996&#10;&#9;&#9;&#9;c-5.633,0-10.199,4.566-10.199,10.199v176.446c0,5.633,4.566,10.199,10.199,10.199h268.941v18.206H20.398V130.343h44.319&#10;&#9;&#9;&#9;c5.633,0,10.199-4.566,10.199-10.199V98.932h57.203v21.211c0,5.633,4.566,10.199,10.199,10.199h349.283V370.581z M491.602,109.944&#10;&#9;&#9;&#9;H152.518V88.733c0-5.633-4.566-10.199-10.199-10.199H64.717c-5.633,0-10.199,4.566-10.199,10.199v21.211H20.398V68.321h471.203&#10;&#9;&#9;&#9;V109.944z" fill="#fd7850" fill-opacity="1" data-original-color="#000000ff" stroke="none" stroke-opacity="1"/>
	</g>
</g><g>
	<g>
		<path d="M469.163,79.038h-2.04c-5.633,0-10.199,4.566-10.199,10.199c0,5.633,4.566,10.199,10.199,10.199h2.04&#10;&#9;&#9;&#9;c5.633,0,10.199-4.566,10.199-10.199C479.363,83.604,474.796,79.038,469.163,79.038z" fill="#fd7850" fill-opacity="1" data-original-color="#000000ff" stroke="none" stroke-opacity="1"/>
	</g>
</g><g>
	<g>
		<path d="M432.446,79.038h-2.04c-5.633,0-10.199,4.566-10.199,10.199c0,5.633,4.566,10.199,10.199,10.199h2.04&#10;&#9;&#9;&#9;c5.633,0,10.199-4.566,10.199-10.199C442.645,83.604,438.079,79.038,432.446,79.038z" fill="#fd7850" fill-opacity="1" data-original-color="#000000ff" stroke="none" stroke-opacity="1"/>
	</g>
</g><g>
	<g>
		<path d="M395.729,79.038h-2.04c-5.633,0-10.199,4.566-10.199,10.199c0,5.633,4.566,10.199,10.199,10.199h2.04&#10;&#9;&#9;&#9;c5.633,0,10.199-4.566,10.199-10.199C405.928,83.604,401.362,79.038,395.729,79.038z" fill="#fd7850" fill-opacity="1" data-original-color="#000000ff" stroke="none" stroke-opacity="1"/>
	</g>
</g><g>
	<g>
		<path d="M277.418,198.368h-4.08c-5.633,0-10.199,4.566-10.199,10.199c0,5.633,4.566,10.199,10.199,10.199h4.08&#10;&#9;&#9;&#9;c5.633,0,10.199-4.566,10.199-10.199C287.618,202.935,283.051,198.368,277.418,198.368z" fill="#fd7850" fill-opacity="1" data-original-color="#000000ff" stroke="none" stroke-opacity="1"/>
	</g>
</g><g>
	<g>
		<path d="M237.641,198.368H96.892c-5.633,0-10.199,4.566-10.199,10.199c0,5.633,4.566,10.199,10.199,10.199h140.749&#10;&#9;&#9;&#9;c5.633,0,10.199-4.566,10.199-10.199C247.841,202.935,243.274,198.368,237.641,198.368z" fill="#fd7850" fill-opacity="1" data-original-color="#000000ff" stroke="none" stroke-opacity="1"/>
	</g>
</g><g>
	<g>
		<path d="M185.625,237.125H96.892c-5.633,0-10.199,4.566-10.199,10.199c0,5.633,4.566,10.199,10.199,10.199h88.733&#10;&#9;&#9;&#9;c5.633,0,10.199-4.566,10.199-10.199C195.825,241.691,191.259,237.125,185.625,237.125z" fill="#fd7850" fill-opacity="1" data-original-color="#000000ff" stroke="none" stroke-opacity="1"/>
	</g>
</g><g>
</g><g>
</g><g>
</g><g>
</g><g>
</g><g>
</g><g>
</g><g>
</g><g>
</g><g>
</g><g>
</g><g>
</g><g>
</g><g>
</g><g>
</g></g></svg>