<svg clip-rule="evenodd" fill-rule="evenodd" height="300" image-rendering="optimizeQuality" shape-rendering="geometricPrecision" text-rendering="geometricPrecision" viewBox="0 0 11806 11806" width="300" xmlns="http://www.w3.org/2000/svg" version="1.1" xmlns:xlink="http://www.w3.org/1999/xlink" xmlns:svgjs="http://svgjs.dev/svgjs"><g width="100%" height="100%" transform="matrix(1,0,0,1,0,0)"><g id="Layer_x0020_1"><circle cx="5903" cy="5903" fill="#fd7850" r="5903" fill-opacity="1" data-original-color="#ff4800ff" stroke="none" stroke-opacity="1"/><g id="_625214624"><g><g><path d="m5903 8917c-35 0-64-17-87-46-122-191-284-422-469-689-758-1087-1793-2580-1793-3489 0-1296 1053-2349 2349-2349s2349 1053 2349 2349c0 909-1036 2396-1794 3489-185 267-347 498-468 689-24 29-53 46-87 46zm0-6370c-1186 0-2147 966-2147 2146 0 845 1059 2367 1759 3374 145 208 278 399 388 561 110-168 243-353 387-561 701-1007 1759-2529 1759-3374 0-1180-960-2146-2146-2146z" fill="#ffffff" fill-opacity="1" data-original-color="#ffffffff" stroke="none" stroke-opacity="1"/></g><g><path d="m5903 6620c-1048 0-1898-850-1898-1898 0-1047 850-1897 1898-1897 1047 0 1898 850 1898 1897 0 1048-851 1898-1898 1898zm0-3593c-932 0-1696 758-1696 1695 0 938 758 1696 1696 1696 937 0 1695-758 1695-1696 0-937-764-1695-1695-1695z" fill="#ffffff" fill-opacity="1" data-original-color="#ffffffff" stroke="none" stroke-opacity="1"/></g><g><path d="m6915 5353c-335 0-578-254-578-602 0-370 231-619 578-619 336 0 573 255 573 614 0 353-237 607-573 607zm0-1024c-347 0-376 318-376 417 0 237 156 399 376 399 272 0 371-220 371-405s-99-411-371-411z" fill="#ffffff" fill-opacity="1" data-original-color="#ffffffff" stroke="none" stroke-opacity="1"/></g><g><path d="m6175 5336h-735c-58 0-104-47-104-99v-989c0-58 46-104 104-104h712c57 0 104 46 104 104s-47 104-104 104h-608v787h637c57 0 104 46 104 104s-52 93-110 93z" fill="#ffffff" fill-opacity="1" data-original-color="#ffffffff" stroke="none" stroke-opacity="1"/></g><g><path d="m6152 4838h-712c-58 0-104-46-104-104s46-104 104-104h712c57 0 104 46 104 104s-47 104-104 104z" fill="#ffffff" fill-opacity="1" data-original-color="#ffffffff" stroke="none" stroke-opacity="1"/></g><g><path d="m4734 5324c-185 0-324-63-399-185-29-46-18-110 29-139 46-29 110-17 139 29 40 64 115 93 231 93 75 0 208-35 208-151 0-81-52-110-214-156l-40-12c-139-34-376-98-376-353 0-231 208-352 410-352 191 0 324 57 400 179 29 46 17 110-29 139-47 29-110 17-139-29-23-35-75-87-232-87-75 0-208 35-208 150 0 81 58 110 220 157l46 11c145 41 359 104 359 353 12 232-197 353-405 353z" fill="#ffffff" fill-opacity="1" data-original-color="#ffffffff" stroke="none" stroke-opacity="1"/></g><g><path d="m5903 9461c-1088 0-2702-185-2702-694 0-446 1221-648 2268-683 58 0 104 41 104 98 0 58-41 105-98 105-1447 52-2072 347-2072 480 0 168 880 492 2500 492 1614 0 2499-324 2499-492 0-139-625-428-2071-480-58 0-98-47-98-105 0-57 46-98 104-98 1047 41 2268 243 2268 683 0 509-1614 694-2702 694z" fill="#ffffff" fill-opacity="1" data-original-color="#ffffffff" stroke="none" stroke-opacity="1"/></g></g></g></g></g></svg>