<svg fill="none" height="300" viewBox="0 0 512 512" width="300" xmlns="http://www.w3.org/2000/svg" version="1.1" xmlns:xlink="http://www.w3.org/1999/xlink" xmlns:svgjs="http://svgjs.dev/svgjs"><g width="100%" height="100%" transform="matrix(1,0,0,1,0,0)"><path d="m360.64 445.32h-207.68c-4.4 0-8-3.6-8-8v-26.04c0-4.24 3.28-7.72 7.52-8 63.36-3.88 72.96-28.2 74.08-42.84h-136.8c-6.96 0-13.24-2.6-18.2-7.56s-7.56-11.24-7.56-18.2v-240.92c0-6.96 2.6-13.28 7.56-18.2 4.96-4.96 11.24-7.56 18.2-7.56h334.12c6.96 0 13.28 2.6 18.2 7.56s7.56 11.24 7.56 18.2v240.88c0 6.96-2.6 13.28-7.56 18.2-4.96 4.96-11.24 7.56-18.2 7.56h-3.76c-4.4 0-8-3.6-8-8s3.6-8 8-8h3.76c2.76 0 4.92-.88 6.92-2.88s2.88-4.12 2.88-6.88v-240.88c0-2.8-.88-4.92-2.88-6.88-2-2-4.12-2.88-6.92-2.88h-334.12c-2.8 0-4.92.88-6.88 2.88-2 2-2.88 4.12-2.88 6.88v240.88c0 2.8.88 4.92 2.88 6.88 2 2 4.12 2.88 6.92 2.88h186.88 36.44c4.4 0 8 3.6 8 8s-3.6 8-8 8h-28.08c1.88 14.8 12.88 39 76.12 42.84 4.24.24 7.52 3.76 7.52 8v26.04c0 4.4-3.6 8-8 8zm-199.68-16h191.68v-10.64c-52.04-4.72-80.12-24.28-83.64-58.24h-26.52c-2.12 33.96-29.52 53.52-81.52 58.24zm180.6-56.2c-.88 0-1.8-.16-2.68-.48-2.92-1.04-4.96-3.68-5.28-6.76l-9.6-95.88c-.32-3.12 1.24-6.16 3.96-7.72s6.12-1.4 8.68.44l78.24 56.28c2.52 1.8 3.76 4.92 3.2 7.96s-2.84 5.48-5.84 6.28l-17.92 4.72 6.64 11.56c2.2 3.84.88 8.72-2.92 10.92l-20.12 11.6c-1.84 1.04-4.04 1.36-6.08.8s-3.8-1.88-4.84-3.72l-6.64-11.52-13.08 13.16c-1.52 1.56-3.6 2.36-5.68 2.36zm20.44-36.6c.36 0 .68 0 1.04.08 2.48.32 4.64 1.76 5.92 3.92l7.88 13.68 6.24-3.6-7.88-13.68c-1.24-2.16-1.4-4.76-.44-7.08s2.92-4.04 5.36-4.64l11.64-3.08-50.04-36 6.16 61.36 8.48-8.56c1.52-1.52 3.56-2.36 5.68-2.36zm-91.16-3.84h-27.76c-4.4 0-8-3.6-8-8s3.6-8 8-8h27.76c4.4 0 8 3.6 8 8s-3.6 8-8 8zm36.68-27.68h-200.68c-4.4 0-8-3.6-8-8s3.6-8 8-8h200.68c4.4 0 8 3.6 8 8s-3.6 8-8 8zm-73.56-27.44c-3.04 0-5.92-1.76-7.24-4.64l-6.48-14c-.2-.44-.44-.92-2.08-1.16h-9.72c-1.84.16-2.12.76-2.32 1.16l-6.44 13.92c-1.64 3.52-5.6 5.36-9.36 4.36-2.36-.64-4.72-1.36-7-2.16-9-3.2-17.2-7.52-24.36-12.84-3.12-2.32-4.12-6.52-2.36-10l7.12-14.24c.2-.4.44-.88-.6-2.48l-5.44-7s-.16-.16-.2-.2c-1.32-1.36-1.8-1.24-2.2-1.16l-15.32 3.68c-3.76.92-7.6-1-9.16-4.52-4.88-11-7.52-22.32-7.84-33.64-.12-3.88 2.56-7.24 6.32-8.04l15.24-3.24c.48-.08 1-.2 1.56-1.68 0-.04 0-.08 0-.12l2.08-8.8s0-.28.04-.36c.24-1.84-.16-2.16-.48-2.44l-12.4-9.72c-3-2.36-3.92-6.52-2.2-9.92 5.36-10.56 12.6-19.68 21.52-27.12 2.96-2.44 7.2-2.48 10.2-.04l12.04 9.84c.4.36.8.68 2.48 0 .12-.04.28-.08.4-.16l7.52-3.64s.32-.2.4-.24c1.6-.96 1.6-1.48 1.6-1.88l-.12-15.88c0-3.8 2.64-7.08 6.36-7.88 11.36-2.4 23-2.44 34.64-.08 3.76.76 6.44 4.08 6.4 7.88l-.12 15.56c0 .56 0 1.12 1.6 2.12l8.44 4.08c1.6.6 2 .24 2.32-.04l12.48-10.12c2.96-2.44 7.24-2.36 10.2.08 8.68 7.32 15.88 16.44 21.44 27.16 1.76 3.44.84 7.64-2.2 10l-12.28 9.56c-.36.28-.8.6-.52 2.52v.32l1.88 8.24s.12.32.16.44c.6 1.84 1.16 1.96 1.52 2.04l15.72 3.4c3.8.84 6.44 4.24 6.32 8.12-.32 8.96-2.08 18.12-5.28 27.2-.8 2.24-1.64 4.36-2.56 6.44-1.56 3.56-5.44 5.52-9.24 4.56l-15.24-3.72c-.4-.08-.96-.24-2.32 1.2l-5.84 7.4c-.96 1.44-.72 1.96-.52 2.36l7.04 14.24c1.72 3.48.68 7.72-2.44 10-4.56 3.32-9.6 6.32-14.96 8.92-5.32 2.52-10.76 4.56-16.16 6-.68.2-1.4.28-2.08.28zm-16-35.76h.76.64c7.16.72 12.64 4.4 15.4 10.4l3.52 7.56c2.36-.88 4.72-1.84 7.04-2.96 2.36-1.12 4.68-2.36 6.88-3.72l-3.88-7.84c-2.96-5.84-2.4-12.44 1.52-18.48.16-.24.32-.44.48-.68l.56-.64 5.76-7.24c.28-.32.48-.56.68-.8 5.12-5.36 11.4-7.4 17.8-5.84l8.44 2.08c1.68-5 2.88-10 3.52-14.96l-8.8-1.92c-6.28-1.32-11.04-5.72-13.32-12.4-.08-.2-.16-.36-.2-.56-.12-.32-.24-.68-.32-1.04l-2.12-9.32c-.08-.28-.12-.56-.16-.84v-.52c-.96-7.12 1.36-13.2 6.56-17.2l6.76-5.28c-2.8-4.44-5.96-8.48-9.48-12.08l-7 5.68c-5 4.16-11.48 5.12-18.24 2.64-.56-.2-.92-.36-1.28-.56l-9.56-4.68c-6.28-3.84-9.6-9.52-9.44-16.12l.08-8.52c-5.12-.56-10.24-.56-15.28 0l.08 8.92c.12 6.4-3.12 11.96-9.16 15.68-.16.12-.32.2-.48.32-.28.2-.56.36-.88.48l-8.6 4.16c-.32.16-.68.32-1.04.4l-.44.12c-6.68 2.4-13.08 1.4-18.04-2.8l-6.6-5.36c-3.56 3.6-6.72 7.6-9.48 12l6.92 5.44c5.08 3.92 7.44 9.92 6.6 16.96 0 .24-.04.48-.08.72 0 .32-.08.64-.16.92l-2.24 9.32s-.08.28-.12.6c-.04.2-.12.44-.2.64-2.32 6.8-7.16 11.24-13.6 12.56l-8.28 1.76c.64 4.96 1.8 9.92 3.52 14.84l8.52-2.04c6.28-1.52 12.48.4 17.4 5.52.16.16.32.32.48.48.2.2.4.4.56.64l5.84 7.44s.2.24.28.4l.48.72c3.88 5.96 4.4 12.48 1.44 18.36l-3.96 7.92c4.32 2.64 9.04 4.88 14.04 6.68l3.48-7.56c2.8-6 8.32-9.68 15.48-10.4h.6 10.28zm136.52-4.64c-4.4 0-8-3.6-8-8v-12.12c-13.8-2.4-22.88-8.8-27-19.08-1.64-4.12.36-8.76 4.48-10.4s8.76.36 10.4 4.48c.88 2.16 3.48 8.76 20.48 9.92h.32c15.36 1.24 17.64-4.44 18.4-6.28 1.56-3.88.92-6.08.28-7.36-1.24-2.56-5.6-7.56-20.72-12.12h-.28c-.24-.12-.44-.16-.64-.24-16.16-4.88-26.04-11.6-30.32-20.48-2.04-4.28-3.72-11.28-.12-20.28 2.76-7.04 9.36-15.04 24.8-16.36v-11.32c.04-4.4 3.64-7.96 8.04-7.96s8 3.6 7.96 8.04v12.08c13.8 2.4 22.88 8.8 27.04 19.08 1.64 4.12-.32 8.76-4.44 10.4-4.08 1.64-8.76-.32-10.4-4.44-.88-2.16-3.56-8.8-20.76-9.96-14.52-.92-16.68 4.56-17.36 6.32-1.6 3.96-.96 6.16-.32 7.44 1.2 2.52 5.44 7.44 20.2 11.96.28.08.68.16.88.2 16.48 4.88 26.6 11.64 30.92 20.56 2.08 4.28 3.76 11.28.16 20.28-2.92 7.24-9.76 15.4-25.92 16.4v11.12c0 4.4-3.6 8-8 8zm-141.44-11h-.12c-9.88 0-18.44-3.56-25.48-10.56-7.04-7.04-10.6-15.64-10.56-25.56 0-9.92 3.52-18.56 10.56-25.64 7.04-7 15.6-10.52 25.44-10.52h.32c9.8 0 18.32 3.52 25.32 10.48 7.04 7.08 10.6 15.68 10.6 25.64 0 9.92-3.6 18.52-10.64 25.56-7.04 7-15.6 10.56-25.48 10.56zm-.08-16c5.6 0 10.24-1.92 14.2-5.88 4-3.96 5.92-8.64 5.92-14.24 0-5.64-1.96-10.32-5.92-14.32-3.96-3.96-8.8-5.8-14.2-5.84h-.08c-5.6 0-10.24 1.92-14.16 5.84-3.96 3.96-5.88 8.68-5.88 14.32 0 5.6 1.92 10.28 5.88 14.24s8.6 5.88 14.16 5.88z" fill="#fd7850" fill-opacity="1" data-original-color="#000000ff" stroke="none" stroke-opacity="1"/></g></svg>