<svg id="Layer_1" enable-background="new 0 0 64 64" viewBox="0 0 64 64" xmlns="http://www.w3.org/2000/svg" width="300" height="300" version="1.1" xmlns:xlink="http://www.w3.org/1999/xlink" xmlns:svgjs="http://svgjs.dev/svgjs"><g width="100%" height="100%" transform="matrix(1,0,0,1,0,0)"><path d="m27.316 22.524-.073-.032c-.314-.121-.662-.266-.856-.422-.145-.112-.193-.208-.193-.38 0-.155.066-.287.194-.386.169-.133.498-.171.759-.152.474.042.83.222 1 .326l.398.243.559-1.628-.266-.155c-.359-.209-.813-.359-1.283-.425v-1.162h-1.773v1.334c-.927.364-1.511 1.181-1.511 2.148 0 .647.302 1.546 1.75 2.162l.288.11c.312.114.516.208.668.311.289.187.346.354.346.581 0 .232-.105.404-.314.511-.191.098-.421.139-.816.114-.475-.044-.958-.244-1.228-.421l-.408-.27-.562 1.696.265.153c.428.247.959.413 1.522.478v1.057h1.773v-1.195c1.077-.335 1.71-1.152 1.71-2.235 0-1.437-1.113-2.036-1.949-2.361z" fill="#fd7850" fill-opacity="1" data-original-color="#000000ff" stroke="none" stroke-opacity="1"/><path d="m59 4h-54c-.553 0-1 .448-1 1v43c0 .552.447 1 1 1h17v9h-6v2h7 18 7v-2h-6v-9h17c.553 0 1-.448 1-1v-43c0-.552-.447-1-1-1zm-19 54h-16v-9h16zm18-11h-17-18-17v-41h52z" fill="#fd7850" fill-opacity="1" data-original-color="#000000ff" stroke="none" stroke-opacity="1"/><path d="m10 44h44c.553 0 1-.448 1-1v-33c0-.552-.447-1-1-1h-44c-.553 0-1 .448-1 1v33c0 .552.447 1 1 1zm1-33h42v31h-42z" fill="#fd7850" fill-opacity="1" data-original-color="#000000ff" stroke="none" stroke-opacity="1"/><path d="m39.914 27.834 2.293-2.293c.273-.273.364-.679.234-1.043s-.457-.62-.842-.659l-6.768-.677c-.091-4.422-3.713-7.992-8.161-7.992-4.505 0-8.17 3.661-8.17 8.16 0 4.505 3.665 8.17 8.17 8.17 1.6 0 3.146-.48 4.458-1.338l.377 3.772c.038.384.295.712.659.842.361.128.77.04 1.043-.235l2.293-2.293 5.293 5.293c.195.195.451.293.707.293s.512-.098.707-.293l3-3c.391-.391.391-1.023 0-1.414zm-8.314-4.995c-.299-.033-.595.076-.807.288s-.317.508-.288.807l.388 3.878c-1.129 1.074-2.642 1.688-4.223 1.688-3.402 0-6.17-2.768-6.17-6.17 0-3.396 2.768-6.16 6.17-6.16 3.278 0 5.958 2.567 6.151 5.791zm9.9 12.581-5.293-5.293c-.195-.195-.451-.293-.707-.293s-.512.098-.707.293l-1.508 1.508-.669-6.684 6.685.668-1.508 1.508c-.391.391-.391 1.023 0 1.414l5.293 5.293z" fill="#fd7850" fill-opacity="1" data-original-color="#000000ff" stroke="none" stroke-opacity="1"/></g></svg>