<svg height="300" viewBox="0 0 512 512" width="300" xmlns="http://www.w3.org/2000/svg" version="1.1" xmlns:xlink="http://www.w3.org/1999/xlink" xmlns:svgjs="http://svgjs.dev/svgjs"><g width="100%" height="100%" transform="matrix(1,0,0,1,0,0)"><path d="m448 73.144531c0 5.046875-4.09375 9.140625-9.144531 9.140625-5.046875 0-9.140625-4.09375-9.140625-9.140625 0-5.050781 4.09375-9.144531 9.140625-9.144531 5.050781 0 9.144531 4.09375 9.144531 9.144531zm0 0" fill="#fd7850" fill-opacity="1" data-original-color="#000000ff" stroke="none" stroke-opacity="1"/><path d="m475.429688 109.714844v-73.144532h-438.859376v73.144532h18.285157v-18.285156c0-5.050782 4.09375-9.144532 9.144531-9.144532s9.144531 4.09375 9.144531 9.144532v18.285156h18.285157v-9.144532c0-5.046874 4.09375-9.140624 9.140624-9.140624 5.050782 0 9.144532 4.09375 9.144532 9.140624v9.144532h18.285156v-18.285156c0-5.050782 4.09375-9.144532 9.144531-9.144532 5.046875 0 9.140625 4.09375 9.140625 9.144532v18.285156h18.285156v-9.144532c0-5.046874 4.09375-9.140624 9.144532-9.140624 5.050781 0 9.140625 4.09375 9.140625 9.140624v9.144532h18.289062v-18.285156c0-5.050782 4.089844-9.144532 9.140625-9.144532 5.050782 0 9.144532 4.09375 9.144532 9.144532v18.285156h18.285156v-9.144532c0-5.046874 4.09375-9.140624 9.140625-9.140624 5.050781 0 9.144531 4.09375 9.144531 9.140624v9.144532h18.285156v-18.285156c0-5.050782 4.09375-9.144532 9.144532-9.144532 5.046874 0 9.140624 4.09375 9.140624 9.144532v18.285156h18.285157v-9.144532c0-5.046874 4.09375-9.140624 9.144531-9.140624s9.144531 4.09375 9.144531 9.140624v9.144532h18.285157v-18.285156c0-5.050782 4.09375-9.144532 9.140624-9.144532 5.050782 0 9.144532 4.09375 9.144532 9.144532v18.285156h18.285156v-9.144532c0-5.046874 4.09375-9.140624 9.144531-9.140624 5.046875 0 9.140625 4.09375 9.140625 9.140624v9.144532zm-36.574219-64c15.148437 0 27.429687 12.28125 27.429687 27.429687 0 15.148438-12.28125 27.425781-27.429687 27.425781-15.148438 0-27.425781-12.277343-27.425781-27.425781.015624-15.144531 12.285156-27.414062 27.425781-27.429687zm0 0" fill="#fd7850" fill-opacity="1" data-original-color="#000000ff" stroke="none" stroke-opacity="1"/><path d="m36.570312 329.144531h310.859376v-82.289062c.015624-15.140625 12.285156-27.410157 27.425781-27.425781h100.574219v-91.429688h-438.859376zm185.847657-180.480469c1.792969-1.632812 4.164062-2.488281 6.585937-2.375 2.421875.117188 4.699219 1.1875 6.332032 2.984376l75.519531 83.078124v-49.496093c0-5.046875 4.09375-9.140625 9.144531-9.140625s9.144531 4.09375 9.144531 9.140625v73.144531c-.019531 1.101562-.238281 2.1875-.648437 3.207031-.128906.300781-.269532.597657-.429688.878907-.855468 1.765624-2.28125 3.183593-4.050781 4.027343-.203125.101563-.363281.25-.582031.335938l-.136719.078125c-1.050781.40625-2.167969.617187-3.296875.617187h-73.144531c-5.046875 0-9.140625-4.09375-9.140625-9.144531s4.09375-9.144531 9.140625-9.144531h52.480469l-77.53125-85.273438c-1.632813-1.796875-2.484376-4.164062-2.367188-6.585937.113281-2.425782 1.1875-4.703125 2.980469-6.332032zm0 0" fill="#fd7850" fill-opacity="1" data-original-color="#000000ff" stroke="none" stroke-opacity="1"/><path d="m347.429688 466.285156v-45.714844h-27.429688v36.574219c9.921875.03125 19.5625 3.328125 27.429688 9.375zm0 0" fill="#fd7850" fill-opacity="1" data-original-color="#000000ff" stroke="none" stroke-opacity="1"/><path d="m365.714844 502.855469c.007812 5.046875 4.09375 9.136719 9.140625 9.144531h128c5.046875-.007812 9.136719-4.097656 9.144531-9.144531v-27.425781h-146.285156zm73.140625-18.285157c5.050781 0 9.144531 4.09375 9.144531 9.144532 0 5.050781-4.09375 9.140625-9.144531 9.140625-5.046875 0-9.140625-4.089844-9.140625-9.140625 0-5.050782 4.09375-9.144532 9.140625-9.144532zm0 0" fill="#fd7850" fill-opacity="1" data-original-color="#000000ff" stroke="none" stroke-opacity="1"/><path d="m210.285156 420.570312h91.429688v36.574219h-91.429688zm0 0" fill="#fd7850" fill-opacity="1" data-original-color="#000000ff" stroke="none" stroke-opacity="1"/><path d="m192 475.429688c-15.140625.015624-27.410156 12.285156-27.429688 27.425781v9.144531h182.871094l-.011718-9.144531c-.019532-15.140625-12.289063-27.410157-27.429688-27.425781zm0 0" fill="#fd7850" fill-opacity="1" data-original-color="#000000ff" stroke="none" stroke-opacity="1"/><path d="m502.855469 237.714844h-128c-5.046875.007812-9.132813 4.09375-9.140625 9.140625v9.144531h146.285156v-9.144531c-.007812-5.046875-4.097656-9.132813-9.144531-9.140625zm0 0" fill="#fd7850" fill-opacity="1" data-original-color="#000000ff" stroke="none" stroke-opacity="1"/><path d="m484.570312 0h-457.140624c-15.144532.015625-27.414063 12.285156-27.429688 27.429688v347.425781c.015625 15.144531 12.285156 27.414062 27.429688 27.429687h320v-54.855468h-310.859376c-10.09375-.011719-18.273437-8.191407-18.285156-18.285157v-292.574219c.011719-10.09375 8.191406-18.273437 18.285156-18.285156h438.859376c10.09375.011719 18.273437 8.191406 18.285156 18.285156v182.859376h9.140625c3.125.03125 6.214843.601562 9.144531 1.683593v-193.683593c-.015625-15.144532-12.285156-27.414063-27.429688-27.429688zm-246.855468 365.714844h36.570312c5.050782 0 9.144532 4.09375 9.144532 9.140625 0 5.050781-4.09375 9.144531-9.144532 9.144531h-36.570312c-5.050782 0-9.144532-4.09375-9.144532-9.144531 0-5.046875 4.09375-9.140625 9.144532-9.140625zm0 0" fill="#fd7850" fill-opacity="1" data-original-color="#000000ff" stroke="none" stroke-opacity="1"/><path d="m365.714844 347.429688v109.714843h146.285156v-182.859375h-146.285156zm73.140625-54.859376h45.714843c5.050782 0 9.144532 4.09375 9.144532 9.144532 0 5.050781-4.09375 9.140625-9.144532 9.140625h-45.714843c-5.046875 0-9.140625-4.089844-9.140625-9.140625 0-5.050782 4.09375-9.144532 9.140625-9.144532zm-45.710938 0h9.140625c5.050782 0 9.144532 4.09375 9.144532 9.144532 0 5.050781-4.09375 9.140625-9.144532 9.140625h-9.140625c-5.050781 0-9.144531-4.089844-9.144531-9.140625 0-5.050782 4.09375-9.144532 9.144531-9.144532zm0 0" fill="#fd7850" fill-opacity="1" data-original-color="#000000ff" stroke="none" stroke-opacity="1"/></g></svg>