<svg id="Layer_1" height="300" viewBox="0 0 512 512" width="300" xmlns="http://www.w3.org/2000/svg" data-name="Layer 1" version="1.1" xmlns:xlink="http://www.w3.org/1999/xlink" xmlns:svgjs="http://svgjs.dev/svgjs"><g width="100%" height="100%" transform="matrix(1,0,0,1,0,0)"><path d="m256 0c141.376 0 256 114.617 256 256s-114.624 256-256 256-256-114.617-256-256 114.623-256 256-256zm105.342 355.92q-3.912 3.777-5.483 5.326c.625.621 1.464 1.478 2.518 2.559l4.17 4.175-5.612 5.621a3.833 3.833 0 0 0 0 5.425l32.406 32.41a15.625 15.625 0 0 0 22.092-22.1l-32.41-32.406a3.819 3.819 0 0 0 -5.421 0l-5.625 5.621-6.635-6.63zm-21.963-16.538a43.673 43.673 0 1 0 -30.839 12.747 43.318 43.318 0 0 0 30.839-12.747zm5.425-67.1a51.273 51.273 0 1 0 15.024 36.269 50.934 50.934 0 0 0 -15.028-36.268zm-80.989 80.994a63.234 63.234 0 1 0 0-89.464 63.338 63.338 0 0 0 0 89.464zm-26.142-46.828a70.783 70.783 0 0 1 68.773-68.773c.031-.8.049-1.6.049-2.4a71.227 71.227 0 1 0 -71.228 71.225c.8 0 1.607-.022 2.406-.053zm19.963 68.094 2.929-13.756c-.737-.674-1.469-1.367-2.188-2.081a70.615 70.615 0 0 1 -20.516-44.582c-.866.031-1.728.049-2.594.049a78.9 78.9 0 1 1 78.912-78.9c0 .862-.022 1.728-.053 2.594a70.667 70.667 0 0 1 44.586 20.512c.7.714 1.4 1.446 2.072 2.183l13.761-2.933v-44.723l-30.145-6.416a3.831 3.831 0 0 1 -2.884-2.666 110.384 110.384 0 0 0 -8.89-21.431 3.827 3.827 0 0 1 .156-3.916l16.781-25.876-31.624-31.616-25.874 16.786a3.819 3.819 0 0 1 -3.916.152 110.83 110.83 0 0 0 -21.423-8.89 3.829 3.829 0 0 1 -2.665-2.88l-6.425-30.152h-44.725l-6.421 30.142a3.831 3.831 0 0 1 -2.67 2.88 110.484 110.484 0 0 0 -21.431 8.9 3.83 3.83 0 0 1 -3.916-.161l-25.873-16.779-31.621 31.618 16.788 25.878a3.814 3.814 0 0 1 .143 3.925 110.877 110.877 0 0 0 -8.877 21.422 3.832 3.832 0 0 1 -2.879 2.666l-30.154 6.414v44.725l30.152 6.425a3.857 3.857 0 0 1 2.879 2.67 110.351 110.351 0 0 0 8.877 21.427 3.833 3.833 0 0 1 -.143 3.924l-16.788 25.861 31.623 31.634 25.869-16.784a3.818 3.818 0 0 1 3.916-.152 110.184 110.184 0 0 0 21.431 8.89 3.831 3.831 0 0 1 2.67 2.88l6.421 30.138z" fill-rule="evenodd" fill="#fd7850" fill-opacity="1" data-original-color="#000000ff" stroke="none" stroke-opacity="1"/></g></svg>