<?xml version="1.0" encoding="utf-8"?>
<!-- Generator: Adobe Illustrator 25.2.1, SVG Export Plug-In . SVG Version: 6.00 Build 0)  -->
<svg version="1.1" id="Layer_1" xmlns="http://www.w3.org/2000/svg" xmlns:xlink="http://www.w3.org/1999/xlink" x="0px" y="0px"
	 viewBox="0 0 36 36" style="enable-background:new 0 0 36 36;" xml:space="preserve">
<style type="text/css">
	.st0{fill:#FD7850;}
</style>
<g>
	<g>
		<path class="st0" d="M18,2.2c0.8,0,1.6,0.1,2.5,0.2c0.4,0.1,0.6,0.3,0.6,0.7c0,0.7,0,1.4,0,2.2c0,0.1,0,0.2,0.2,0.2
			c1.2,0.3,2.3,0.8,3.3,1.4c0.1,0.1,0.2,0,0.2,0c0.5-0.5,1-1,1.6-1.6c0.3-0.3,0.6-0.3,0.9-0.1c1.4,1,2.6,2.2,3.6,3.6
			C31,9.1,31,9.4,30.8,9.6c-0.5,0.5-1,1.1-1.6,1.6c-0.1,0.1-0.1,0.1,0,0.2c0.6,1,1.1,2.1,1.4,3.3c0,0.1,0.1,0.2,0.2,0.2
			c0.7,0,1.4,0,2.2,0c0.4,0,0.6,0.2,0.7,0.6c0.2,1.2,0.2,2.5,0.1,3.8c0,0.4-0.1,0.9-0.2,1.3c-0.1,0.4-0.3,0.6-0.7,0.6
			c-0.7,0-1.5,0-2.2,0c-0.1,0-0.2,0-0.2,0.1c-0.3,1.2-0.8,2.3-1.4,3.3c-0.1,0.1-0.1,0.2,0,0.2c0.5,0.5,1,1,1.5,1.5
			c0.3,0.3,0.3,0.6,0.1,0.9c-1,1.4-2.2,2.6-3.6,3.6c-0.3,0.2-0.6,0.2-0.9-0.1c-0.5-0.5-1-1-1.5-1.6c-0.1-0.1-0.1-0.1-0.2,0
			c-1,0.6-2.2,1.1-3.3,1.4c-0.1,0-0.1,0.1-0.1,0.2c0,0.7,0,1.4,0,2.2c0,0.4-0.2,0.6-0.6,0.7c-1.3,0.2-2.7,0.2-4.1,0.1
			c-0.3,0-0.6-0.1-1-0.1c-0.4-0.1-0.6-0.3-0.6-0.7c0-0.7,0-1.5,0-2.2c0-0.1,0-0.2-0.1-0.2c-1.2-0.3-2.3-0.8-3.3-1.4
			c-0.1-0.1-0.2-0.1-0.3,0c-0.5,0.5-1,1-1.5,1.6c-0.3,0.3-0.6,0.3-0.9,0.1c-1.4-1-2.6-2.2-3.6-3.6C5,26.9,5,26.6,5.3,26.4
			c0.5-0.5,1-1,1.6-1.5c0.1-0.1,0.1-0.2,0-0.3c-0.6-1-1.1-2.1-1.4-3.3c0-0.1-0.1-0.2-0.2-0.2c-0.7,0-1.4,0-2.2,0
			c-0.4,0-0.7-0.2-0.7-0.6c-0.2-1.2-0.2-2.4-0.1-3.7c0-0.5,0.1-0.9,0.2-1.4c0.1-0.4,0.3-0.5,0.7-0.5c0.7,0,1.5,0,2.2,0
			c0.1,0,0.2,0,0.2-0.2c0.3-1.2,0.7-2.2,1.3-3.3c0.1-0.1,0.1-0.2,0-0.3c-0.5-0.5-1-1-1.5-1.5C5,9.4,5,9.1,5.2,8.7
			c1-1.4,2.2-2.6,3.6-3.6C9.1,4.9,9.4,5,9.7,5.3c0.5,0.5,1,1,1.5,1.5c0.1,0.1,0.1,0.1,0.2,0c1-0.6,2.1-1.1,3.3-1.4
			c0.1,0,0.2-0.1,0.2-0.2c0-0.7,0-1.4,0-2.2c0-0.4,0.2-0.6,0.6-0.7C16.3,2.3,17.2,2.2,18,2.2z M18,32.6c0.6,0,1.2-0.1,1.7-0.1
			c0.1,0,0.2-0.1,0.2-0.2c0-0.7,0-1.5,0-2.2c0-0.4,0.2-0.6,0.5-0.6c1.4-0.3,2.7-0.8,3.9-1.6c0.4-0.2,0.6-0.2,0.9,0.1
			c0.5,0.5,1,1,1.5,1.5c0.1,0.1,0.1,0.1,0.2,0c0.9-0.7,1.7-1.5,2.4-2.4c0.1-0.1,0.1-0.2,0-0.3c-0.5-0.5-1-1-1.5-1.5
			c-0.3-0.3-0.4-0.6-0.1-0.9c0.8-1.2,1.3-2.5,1.6-3.9c0.1-0.4,0.3-0.6,0.7-0.6c0.7,0,1.4,0,2.1,0c0.1,0,0.2,0,0.2-0.1
			c0.1-1.2,0.1-2.3,0-3.5c0-0.1-0.1-0.2-0.2-0.2c-0.7,0-1.4,0-2.1,0c-0.4,0-0.6-0.2-0.7-0.6c-0.3-1.4-0.8-2.7-1.6-3.9
			c-0.2-0.4-0.2-0.6,0.1-0.9c0.5-0.5,1-1,1.5-1.5c0.1-0.1,0.1-0.1,0-0.3C28.7,8,27.9,7.2,27,6.5c-0.1-0.1-0.2-0.1-0.2,0
			c-0.5,0.5-1,1-1.5,1.5c-0.3,0.3-0.6,0.4-1,0.1c-1.2-0.8-2.5-1.3-3.9-1.6c-0.4-0.1-0.6-0.3-0.6-0.7c0-0.7,0-1.4,0-2.1
			c0-0.1,0-0.1-0.1-0.2c-1.2-0.1-2.3-0.1-3.5,0c-0.1,0-0.2,0.1-0.2,0.2c0,0.7,0,1.4,0,2.2c0,0.4-0.2,0.6-0.5,0.6
			c-1.4,0.3-2.7,0.8-4,1.6C11.3,8.4,11,8.3,10.7,8c-0.5-0.5-1-1-1.5-1.5C9.1,6.4,9.1,6.4,9,6.5C8.1,7.3,7.3,8.1,6.5,9
			c-0.1,0.1-0.1,0.2,0,0.3c0.5,0.5,1,1,1.5,1.5c0.1,0.1,0.2,0.2,0.2,0.4c0.1,0.2,0,0.4-0.1,0.6c-0.8,1.2-1.3,2.5-1.6,3.9
			c-0.1,0.4-0.3,0.6-0.7,0.6c-0.7,0-1.4,0-2.1,0c-0.1,0-0.1,0-0.2,0.1c0,0.2,0,0.4-0.1,0.6c-0.1,1-0.1,2,0.1,2.9
			c0,0.1,0.1,0.1,0.2,0.1c0.7,0,1.4,0,2.2,0c0.4,0,0.6,0.2,0.7,0.6c0.3,1.4,0.8,2.7,1.6,3.9c0.3,0.4,0.2,0.6-0.1,1
			c-0.5,0.5-1,1-1.5,1.5c-0.1,0.1-0.1,0.1,0,0.2c0.7,0.9,1.6,1.7,2.5,2.5c0.1,0.1,0.1,0.1,0.2,0c0.5-0.5,1-1,1.5-1.5
			c0.3-0.3,0.5-0.3,0.9-0.1c1.2,0.8,2.5,1.3,3.9,1.6c0.4,0.1,0.6,0.3,0.6,0.7c0,0.7,0,1.4,0,2.1c0,0.1,0,0.2,0.1,0.2
			C16.8,32.5,17.4,32.6,18,32.6z"/>
		<path class="st0" d="M18.2,27.2c-3-0.1-5.4-1.2-7.2-3.4c-0.2-0.3-0.2-0.6,0-0.9c0.3-0.2,0.7-0.2,0.9,0.1c0.4,0.5,0.9,1,1.4,1.4
			c1.5,1.1,3.1,1.6,4.9,1.5c2.4-0.1,4.4-1.1,6-2.9c0.2-0.3,0.6-0.3,0.9-0.1c0.3,0.2,0.3,0.6,0,0.9c-1.4,1.7-3.2,2.8-5.4,3.2
			C19.1,27.1,18.5,27.1,18.2,27.2z"/>
		<path class="st0" d="M25.3,12.6c0,0.3-0.2,0.5-0.4,0.6c-0.2,0.1-0.5,0-0.7-0.2c-0.3-0.4-0.7-0.7-1-1.1c-1.4-1.1-2.9-1.8-4.7-1.9
			c-2.7-0.1-4.9,0.9-6.6,2.9c-0.2,0.3-0.6,0.3-0.9,0.1c-0.3-0.2-0.3-0.6-0.1-0.9c1-1.2,2.3-2.2,3.8-2.7c2.2-0.8,4.4-0.8,6.6,0
			c1.5,0.6,2.8,1.5,3.8,2.8C25.2,12.3,25.2,12.5,25.3,12.6z"/>
		<path class="st0" d="M21.8,18c0-0.7,0-1.4,0-2.2c0-0.4,0.2-0.7,0.7-0.7c0.9,0,1.8,0,2.7,0c0.4,0,0.7,0.2,0.7,0.7
			c0,1.4,0,2.9,0,4.3c0,0.4-0.3,0.7-0.7,0.7c-0.9,0-1.8,0-2.8,0c-0.4,0-0.7-0.3-0.7-0.7C21.8,19.4,21.8,18.7,21.8,18
			C21.8,18,21.8,18,21.8,18z M24.6,19.6C24.6,19.5,24.6,19.5,24.6,19.6c0-1.1,0-2.1,0-3.1c0-0.1-0.1-0.1-0.1-0.1c-0.4,0-0.9,0-1.3,0
			c0,0-0.1,0-0.1,0c0,1.1,0,2.1,0,3.2C23.6,19.6,24.1,19.6,24.6,19.6z"/>
		<path class="st0" d="M11.4,17.4c0.1,0,0.2,0,0.2,0c0.6,0,1.3,0,1.9,0c0.4,0,0.7,0.2,0.7,0.7c0,0.7,0,1.4,0,2.1
			c0,0.4-0.3,0.7-0.7,0.7c-0.9,0-1.9,0-2.8,0c-0.4,0-0.7-0.3-0.7-0.6c0-0.4,0.3-0.6,0.7-0.6c0.7,0,1.3,0,2,0c0.1,0,0.1,0,0.2,0
			c0-0.1,0-0.1,0-0.2c0-0.2,0-0.3,0-0.5c0-0.3,0-0.3-0.3-0.3c-0.6,0-1.2,0-1.8,0c-0.4,0-0.7-0.2-0.7-0.7c0-0.7,0-1.4,0-2.1
			c0-0.4,0.3-0.7,0.7-0.7c0.9,0,1.9,0,2.8,0c0.3,0,0.6,0.2,0.6,0.5c0,0.3-0.1,0.6-0.4,0.7c-0.1,0-0.2,0-0.3,0c-0.6,0-1.3,0-1.9,0
			c-0.3,0-0.2,0-0.2,0.2C11.4,16.9,11.4,17.1,11.4,17.4z"/>
		<path class="st0" d="M17.4,17.4c0.1,0,0.1,0,0.2,0c0.4,0,0.7,0,1.1,0c0.4,0,0.6,0.3,0.6,0.6c0,0.3-0.3,0.6-0.6,0.6
			c-0.4,0-0.8,0-1.2,0c0,0.3,0,0.6,0,1c0.1,0,0.1,0,0.2,0c0.6,0,1.1,0,1.7,0c0.3,0,0.6,0.2,0.6,0.4c0.1,0.4-0.2,0.8-0.6,0.8
			c-0.6,0-1.1,0-1.7,0c-0.3,0-0.6,0-0.8,0c-0.4,0-0.6-0.3-0.6-0.6c0-1.5,0-2.9,0-4.4c0-0.4,0.3-0.6,0.6-0.6c0.8,0,1.7,0,2.5,0
			c0.4,0,0.6,0.3,0.6,0.6c0,0.4-0.3,0.6-0.6,0.6c-0.6,0-1.2,0-1.7,0c-0.1,0-0.2,0-0.2,0.2C17.4,16.8,17.4,17.1,17.4,17.4z"/>
	</g>
</g>
</svg>
