<svg id="Layer_1" enable-background="new 0 0 256 256" height="300" viewBox="0 0 256 256" width="300" xmlns="http://www.w3.org/2000/svg" version="1.1" xmlns:xlink="http://www.w3.org/1999/xlink" xmlns:svgjs="http://svgjs.dev/svgjs"><g width="100%" height="100%" transform="matrix(1,0,0,1,0,0)"><g><g><path d="m248.5 94.9h-46.1c-4.2 0-7.5-3.4-7.5-7.5v-33.3c0-4.2 3.4-7.5 7.5-7.5h46.1c4.2 0 7.5 3.4 7.5 7.5v33.3c0 4.1-3.4 7.5-7.5 7.5zm0-45.4h-46.1c-2.5 0-4.6 2.1-4.6 4.6v33.3c0 2.5 2.1 4.6 4.6 4.6h46.1c2.5 0 4.6-2.1 4.6-4.6v-33.3c0-2.6-2.1-4.6-4.6-4.6z" fill="#fd7850" fill-opacity="1" data-original-color="#4a555fff" stroke="none" stroke-opacity="1"/></g><path d="m247.1 53.1h-43.4c-1.1 0-2.1.9-2.1 2.1v31.2c0 1.1.9 2.1 2.1 2.1h43.4c1.1 0 2.1-.9 2.1-2.1v-31.2c0-1.2-1-2.1-2.1-2.1zm-28.4 25.8v-15c0-.8.9-1.4 1.6-1l13.4 7.5c.8.4.8 1.5 0 1.9l-13.4 7.5c-.6.4-1.6-.1-1.6-.9z" fill="#ffd552" fill-opacity="1" data-original-color="#ffd552ff" stroke="none" stroke-opacity="1"/><g><path d="m217.1 83.8v-24.7l22.1 12.3zm2.9-19.7v14.7l13.2-7.3z" fill="#fd7850" fill-opacity="1" data-original-color="#4a555fff" stroke="none" stroke-opacity="1"/></g><g><g><g><g><g><g><path d="m163 71.1h-2.7v-2.9h2.7c1.5 0 2.7-1.2 2.7-2.7v-2.2c0-1.5-1.2-2.7-2.7-2.7h-.3v-2.9h.3c3.1 0 5.7 2.5 5.7 5.7v2.2c-.1 3-2.6 5.5-5.7 5.5z" fill="#fd7850" fill-opacity="1" data-original-color="#4a555fff" stroke="none" stroke-opacity="1"/></g><path d="m162.7 60.9h.2z" fill="#e0e0e0" fill-opacity="1" data-original-color="#e0e0e0ff" stroke="none" stroke-opacity="1"/><g><path d="m161.5 78.7h-41.5l-11.1-5.8v-32.5l4.3-3.4 1.8 2.3-3.2 2.5v29.4l8.9 4.7h40.8c.9 0 1.6-.7 1.6-1.6v-1.6c0-.9-.7-1.6-1.6-1.6h-.2v-2.9h.2c2.5 0 4.5 2 4.5 4.5v1.6c0 2.4-2 4.4-4.5 4.4z" fill="#fd7850" fill-opacity="1" data-original-color="#4a555fff" stroke="none" stroke-opacity="1"/></g></g><g><path d="m111.8 77.7h-21.2v-42.9h21.2zm-18.2-3h15.3v-37h-15.3z" fill="#fd7850" fill-opacity="1" data-original-color="#4a555fff" stroke="none" stroke-opacity="1"/></g><path d="m96.9 41.1h8.6v30.3h-8.6z" fill="#ffd552" fill-opacity="1" data-original-color="#ffd552ff" stroke="none" stroke-opacity="1"/><circle cx="101.2" cy="44.2" fill="#fd7850" r="2.3" fill-opacity="1" data-original-color="#4a555fff" stroke="none" stroke-opacity="1"/></g></g><g><g><g><g><path d="m128.4 75.8h30.8v2.9h-30.8z" fill="#fd7850" fill-opacity="1" data-original-color="#4a555fff" stroke="none" stroke-opacity="1"/></g></g></g></g><g><path d="m157.7 47h7.3v2.9h-7.3z" fill="#fd7850" fill-opacity="1" data-original-color="#4a555fff" stroke="none" stroke-opacity="1"/></g><g><path d="m155.6 57.6h7.3v2.9h-7.3z" fill="#fd7850" fill-opacity="1" data-original-color="#4a555fff" stroke="none" stroke-opacity="1"/></g><g><path d="m153.4 68.2h7.3v2.9h-7.3z" fill="#fd7850" fill-opacity="1" data-original-color="#4a555fff" stroke="none" stroke-opacity="1"/></g></g><g><path d="m161.5 78.7h-41.5l-11.1-5.8v-32.5l4.3-3.4 4.9-4c.4-.3.7-.6 1-.8l.2-.1c.5-.4.9-.7.9-.7 4-3.1 6.9-7.2 8.6-11.9l2.3-6.5c.7-1.9 2.5-3.2 4.5-3.2 1.7 0 3.3.9 4.1 2.4 2 3.6 2.6 7.9 1.5 11.9l-3.5 12.7h27.9c1.3 0 2.6.5 3.6 1.3.1.1.3.2.4.4.3.3.5.5.7.8.6.9 1 2 1 3.2v2c0 1.1-.3 2.2-1 3.2-.2.3-.4.6-.7.8-.1.1-.3.3-.4.4s-.3.2-.4.3c.9 1 1.4 2.3 1.4 3.7v2.2c0 1.1-.3 2.2-1 3.2-.5.7-1 1.2-1.7 1.6.8 1 1.3 2.2 1.3 3.6v2.2c0 2.2-1.3 4.2-3.2 5.1.3.6.5 1.4.5 2.1v1.6c-.1 2.2-2.1 4.2-4.6 4.2zm-40.8-2.9h40.8c.9 0 1.6-.7 1.6-1.6v-1.6c0-.9-.7-1.6-1.6-1.6v-2.9h1.5c1.5 0 2.7-1.2 2.7-2.7v-2.2c0-1.5-1.1-2.6-2.6-2.7l-1.7-.1.6-2.8h2.3c.9 0 1.8-.5 2.3-1.2.3-.5.5-1 .5-1.5v-2.2c0-1.2-.9-2.3-2-2.6-.1 0-.1 0-.2 0l-1.5-.3.5-2.7 1.6-.1c.6 0 1.2-.2 1.7-.6.1-.1.1-.1.2-.2s.2-.3.3-.4c.3-.5.5-1 .5-1.5v-2c0-.6-.2-1.1-.5-1.5-.1-.1-.2-.3-.3-.4s-.1-.1-.2-.2c-.5-.4-1.1-.6-1.7-.6h-31.8l4.6-16.4c.9-3.2.5-6.7-1.2-9.6-.3-.6-.9-.9-1.6-.9-.8 0-1.4.5-1.7 1.2l-2.3 6.5c-1.8 5.3-5.2 9.9-9.6 13.3l-.7-.9.6.9s-.8.6-2 1.6l-4.9 4-3.2 2.5v29.4z" fill="#fd7850" fill-opacity="1" data-original-color="#4a555fff" stroke="none" stroke-opacity="1"/></g><path d="m121.5 72.5-6.4-3.3v-25.8l1.9-1.5c.6-.5 1.2-.9 1.7-1.4.6-.5 1.2-1 1.8-1.4 2.8-2.2 5.7-4.4 8.1-7.2.9-1 1.7-2.1 2.5-3.2.3-.4.8-.6 1.3-.4.5.2.7.7.6 1.3l-3.8 13.5h28.3l-2.3 1.7c-1 .7-1.6 1.8-1.8 3-.1.4-.1.7-.1 1.1.1 1.7 1.2 3.2 2.7 3.9l2.6 1.3-3 .4c-1.9.3-3.5 1.7-3.9 3.5-.3 1.3-.1 2.8.7 3.9.4.6.9 1.1 1.6 1.4l2.5 1.4-2.9.3c-2 .2-3.6 1.7-4.1 3.6l-.1.2c-.2.8-.2 1.7.1 2.5l.4 1.2z" fill="#e0e0e0" fill-opacity="1" data-original-color="#e0e0e0ff" stroke="none" stroke-opacity="1"/></g><g><g><path d="m175.7 199.7v-59.3h-91.4v59.3z" fill="#f68f6f" fill-opacity="1" data-original-color="#f68f6fff" stroke="none" stroke-opacity="1"/><g><path d="m181.1 224.5h-102.8c-5.4 0-9.8-4.4-9.8-9.8v-81.4c0-5.4 4.4-9.8 9.8-9.8h102.8c5.4 0 9.8 4.4 9.8 9.8v81.4c0 5.4-4.4 9.8-9.8 9.8zm-102.8-98c-3.8 0-6.9 3.1-6.9 6.9v81.4c0 3.8 3.1 6.9 6.9 6.9h102.7c3.8 0 6.9-3.1 6.9-6.9v-81.4c0-3.8-3.1-6.8-6.8-6.8h-102.8zm103.7 79.5h-104v-72h104zm-101.1-2.9h98.2v-66.1h-98.2z" fill="#fd7850" fill-opacity="1" data-original-color="#4a555fff" stroke="none" stroke-opacity="1"/></g><path d="m78.3 218.2c-1.9 0-3.5-1.6-3.5-3.5v-5.3h109.6v5.3c0 1.9-1.6 3.5-3.5 3.5z" fill="#e0e0e0" fill-opacity="1" data-original-color="#e0e0e0ff" stroke="none" stroke-opacity="1"/><g><path d="m150.2 238.8h-39.8l7.2-17.3h25.4zm-35.4-2.9h31l-4.7-11.4h-21.5z" fill="#fd7850" fill-opacity="1" data-original-color="#4a555fff" stroke="none" stroke-opacity="1"/></g><g><path d="m165.3 246.3h-70.1v-10.4h70.1zm-67.1-2.9h64.2v-4.5h-64.2z" fill="#fd7850" fill-opacity="1" data-original-color="#4a555fff" stroke="none" stroke-opacity="1"/></g><g><path d="m73.1 243.4h114.3v2.9h-114.3z" fill="#fd7850" fill-opacity="1" data-original-color="#4a555fff" stroke="none" stroke-opacity="1"/></g><circle cx="130.4" cy="213.9" fill="#ffffff" r="4.5" fill-opacity="1" data-original-color="#ffffffff" stroke="none" stroke-opacity="1"/><g><path d="m130.4 219.9c-3.3 0-6-2.7-6-6s2.7-6 6-6 6 2.7 6 6c-.1 3.3-2.7 6-6 6zm0-9c-1.7 0-3 1.4-3 3 0 1.7 1.4 3 3 3 1.7 0 3-1.4 3-3 0-1.7-1.4-3-3-3z" fill="#fd7850" fill-opacity="1" data-original-color="#4a555fff" stroke="none" stroke-opacity="1"/></g></g></g><g><g><path d="m17.7 101.5h-15.6v-2.7l20.3-13.9c-15.8-5.7-22.1-21.6-22.4-22.3v-2h38.3c.7-7.7 7.2-13.8 15.1-13.8 5.2 0 10 2.7 12.7 7h10.1v2.7l-3.9 2.3h3.4v2.6l-7 5.4c-1.1.8-1.9 1.8-2.6 3l-.1.3c-.4.7-.8 1.5-1.1 2.5-7.7 23.9-29.9 28.9-47.2 28.9zm-10-2.9h10.1c16.3 0 37.2-4.7 44.3-26.9.4-1.2.8-2.2 1.4-3.1l.1-.2c.9-1.5 2-2.7 3.3-3.8l3.6-2.8h-4.3v-2.8l3.9-2.3h-5.6l-.5-.7c-2.2-3.8-6.2-6.2-10.6-6.2-6.7 0-12.2 5.5-12.2 12.2v.2 1.5h-37.5c2.4 4.6 9.8 16 22.9 19.4v2.6z" fill="#fd7850" fill-opacity="1" data-original-color="#4a555fff" stroke="none" stroke-opacity="1"/></g><path d="m37.3 82.4-10.3-2.7c-8.3-2.2-13.9-8-17.2-12.7h35l-.1-5.1v-.1c.1-4.8 4-8.7 8.8-8.7 3.2 0 6.1 1.7 7.7 4.5l.2.4-5.6 4.7 5.9 2.5c-.3.4-.6.9-.9 1.4l-.1.2c-.7 1.1-1.3 2.4-1.7 3.8-5.1 16-18.6 24.3-40.1 24.5z" fill="#71cde1" fill-opacity="1" data-original-color="#71cde1ff" stroke="none" stroke-opacity="1"/></g><g><path d="m130.4 190.4c-11.2 0-20.3-9.1-20.3-20.3s9.1-20.3 20.3-20.3c8.4 0 16.1 5.3 19 13.2l-2.7 1c-2.5-6.7-9.1-11.3-16.3-11.3-9.6 0-17.4 7.8-17.4 17.4s7.8 17.4 17.4 17.4c7 0 13.3-4.2 16-10.6l2.7 1.1c-3.2 7.6-10.6 12.4-18.7 12.4z" fill="#fd7850" fill-opacity="1" data-original-color="#4a555fff" stroke="none" stroke-opacity="1"/></g><g><path d="m150.6 166.9-11.4-2.9.7-2.8 8.2 2.1 1.3-8.7 2.9.4z" fill="#fd7850" fill-opacity="1" data-original-color="#4a555fff" stroke="none" stroke-opacity="1"/></g><g><path d="m79.7 109.1-1.9-2.2 2.2-1.9 1.9 2.2zm-3.9-4.4-1.9-2.2 2.2-1.9 1.9 2.2zm-3.9-4.5-1.9-2.2 2.2-1.9 1.9 2.2z" fill="#fd7850" fill-opacity="1" data-original-color="#4a555fff" stroke="none" stroke-opacity="1"/></g><g><path d="m179.5 110-2.2-1.9 1.9-2.2 2.2 1.9zm3.8-4.5-2.2-1.9 1.9-2.2 2.2 1.9zm3.9-4.4-2.2-1.9 1.9-2.2 2.2 1.9z" fill="#fd7850" fill-opacity="1" data-original-color="#4a555fff" stroke="none" stroke-opacity="1"/></g><g><path d="m132.8 108.2h-2.9v-2.9h2.9zm0-5.9h-2.9v-2.9h2.9zm0-5.8h-2.9v-2.9h2.9zm0-5.9h-2.9v-2.9h2.9z" fill="#fd7850" fill-opacity="1" data-original-color="#4a555fff" stroke="none" stroke-opacity="1"/></g></g></g></svg>