<svg id="Layer_1" enable-background="new 0 0 53 53" height="300" viewBox="0 0 53 53" width="300" xmlns="http://www.w3.org/2000/svg" version="1.1" xmlns:xlink="http://www.w3.org/1999/xlink" xmlns:svgjs="http://svgjs.dev/svgjs"><g width="100%" height="100%" transform="matrix(1,0,0,1,0,0)"><g><path d="m34.7581787 46.4601746h-1.8952637v-4.4701538h-12.7299804v4.4701538h-1.8847656c-.9400635 0-1.7000732.75-1.7000732 1.6900024 0 .9299927.7600098 1.6900024 1.7000732 1.6900024h16.5100098c.9300537 0 1.6900635-.7600098 1.6900635-1.6900024-.0000001-.9400024-.7600099-1.6900024-1.6900636-1.6900024z" fill="#fd7850" fill-opacity="1" data-original-color="#000000ff" stroke="none" stroke-opacity="1"/><path d="m24.556 7.66h21.11v8.09h-21.11z" fill="#fd7850" fill-opacity="1" data-original-color="#000000ff" stroke="none" stroke-opacity="1"/><path d="m31.93 20.681h13.736v1.882h-13.736z" fill="#fd7850" fill-opacity="1" data-original-color="#000000ff" stroke="none" stroke-opacity="1"/><path d="m2.8330078 36.6054993c0 2.4202881 1.9619141 4.3823242 4.3823242 4.3823242h38.569336c2.4204102 0 4.3823242-1.9620361 4.3823242-4.3823242v-2.8349609h-47.3339844zm21.2233887.0234375h4.8017578c.2763672 0 .5.2236328.5.5s-.2236328.5-.5.5h-4.8017578c-.2763672 0-.5-.2236328-.5-.5s.2236328-.5.5-.5z" fill="#fd7850" fill-opacity="1" data-original-color="#000000ff" stroke="none" stroke-opacity="1"/><path d="m12.8464355 14.2666321c-.109375.0869141-.25.125-.3896484.1025391-.1386719-.0224609-.2617188-.1015625-.3388672-.2177734l-1.6279297-2.4580078-2.7202148 4.0566406h9.7420654l-2.77771-2.9873047z" fill="#fd7850" fill-opacity="1" data-original-color="#000000ff" stroke="none" stroke-opacity="1"/><path d="m10.4929199 10.2920227h.0009766c.1679688 0 .3232422.0849609.4160156.2236328l1.7402344 2.6279297 1.8232422-1.4521484c.2050781-.1611328.5009766-.1396484.6777344.0507813l3.0087891 3.2355347v-7.317566h-10.8271485v6.9470215l2.7451172-4.0935059c.0927734-.1386719.2480468-.2216797.415039-.2216797zm2.2529297-.8544922h.4970703c.2763672 0 .5.2236328.5.5s-.2236328.5-.5.5h-.4970703c-.2763672 0-.5-.2236328-.5-.5s.2236328-.5.5-.5z" fill="#fd7850" fill-opacity="1" data-original-color="#000000ff" stroke="none" stroke-opacity="1"/><path d="m45.784668 3.1598206h-38.569336c-2.4204102 0-4.3823242 1.9620972-4.3823242 4.3823853v25.2283325h47.3339844v-25.2283326c0-2.4202881-1.9619141-4.3823852-4.3823242-4.3823852zm-24.0417481 16.520874h2c.2763672 0 .5.2236328.5.5s-.2236328.5-.5.5h-2c-.2763672 0-.5-.2236328-.5-.5s.2236328-.5.5-.5zm-1.5.5c0 .2763672-.2236328.5-.5.5h-2c-.2763672 0-.5-.2236328-.5-.5s.2236328-.5.5-.5h2c.2763672 0 .5.2236328.5.5zm-13.9101562-13.0205078c0-.2763672.2236328-.5.5-.5h11.8271484c.2763672 0 .5.2236328.5.5v9.0898438c0 .0031128-.001709.0057373-.001709.0088501-.0007324.0402222-.0134277.0784302-.0236816.1174927-.0065918.0241699-.0070801.050293-.0169678.072937-.0098877.0227661-.0286865.0410767-.0421143.062439-.0213623.0339355-.0405273.0691528-.0693359.0968628-.0021973.0022583-.0029297.0054321-.0053711.0076294-.0185547.0172729-.0419922.0241699-.0623779.0380859-.0313721.0216064-.0606689.0449829-.0965576.059082-.0335693.0130005-.0683594.0152588-.1035156.020813-.0264893.0043335-.0505371.0158081-.0783691.0158081h-11.8271485c-.0928955 0-.1750488-.0321045-.2495117-.0761719-.0090332-.0053101-.0200195-.0028076-.0288086-.0087891-.0131836-.0087891-.0200195-.0224609-.0319824-.0322266-.0275879-.0222778-.0512695-.0462646-.0734863-.0738525-.0197754-.0245972-.0368652-.0490112-.0515137-.076416-.0148926-.027771-.0257568-.0559692-.0352783-.0865479-.0102539-.0331421-.0169678-.0653687-.0201416-.0999146-.0014648-.0159302-.0092773-.0297241-.0092773-.0460815v-9.0898437zm9.9101562 13.0205078c0 .2763672-.2236328.5-.5.5h-2c-.2763672 0-.5-.2236328-.5-.5s.2236328-.5.5-.5h2c.2763672 0 .5.2236328.5.5zm-4 0c0 .2763672-.2236328.5-.5.5h-2c-.2763672 0-.5-.2236328-.5-.5s.2236328-.5.5-.5h2c.2763672 0 .5.2236328.5.5zm-5.9101562 0c0-.2763672.2236328-.5.5-.5h.9101563c.2763672 0 .5.2236328.5.5s-.2236328.5-.5.5h-.4101563v.5898438c0 .2763672-.2236328.5-.5.5s-.5-.2236328-.5-.5zm0 3.0898437c0-.2763672.2236328-.5.5-.5s.5.2236328.5.5v2c0 .2763672-.2236328.5-.5.5s-.5-.2236328-.5-.5zm3.125 6.5h-2c-.1181641 0-.2265625-.0410156-.3125-.109375-.2880859.2265625-.8125.0029297-.8125-.390625v-2c0-.2763672.2236328-.5.5-.5s.5.2236328.5.5v1.515625c.0400391-.0097656.0820313-.015625.125-.015625h2c.2763672 0 .5.2236328.5.5s-.2236328.5-.5.5zm4 0h-2c-.2763672 0-.5-.2236328-.5-.5s.2236328-.5.5-.5h2c.2763672 0 .5.2236328.5.5s-.2236328.5-.5.5zm4 0h-2c-.2763672 0-.5-.2236328-.5-.5s.2236328-.5.5-.5h2c.2763672 0 .5.2236328.5.5s-.2236328.5-.5.5zm4 0h-2c-.2763672 0-.5-.2236328-.5-.5s.2236328-.5.5-.5h2c.2763672 0 .5.2236328.5.5s-.2236328.5-.5.5zm4 0h-2c-.2763672 0-.5-.2236328-.5-.5s.2236328-.5.5-.5h2c.2763672 0 .5.2236328.5.5s-.2236328.5-.5.5zm2.0976562-.9023437c0 .2763672-.2236328.5-.5.5s-.5-.2236328-.5-.5v-2c0-.2763672.2236328-.5.5-.5s.5.2236328.5.5zm0-4c0 .2763672-.2236328.5-.5.5s-.5-.2236328-.5-.5v-2c0-.2763672.2236328-.5.5-.5s.5.2236328.5.5zm0-4c0 .2763672-.2236328.5-.5.5s-.5-.2236328-.5-.5v-.1875h-.8125c-.2763672 0-.5-.2236328-.5-.5s.2236328-.5.5-.5h1.3125c.2763672 0 .5.2236328.5.5zm19.1113281 8.4023437c0 .2763672-.2236328.5-.5.5h-14.7363281c-.2763672 0-.5-.2236328-.5-.5v-2.8818359c0-.2763672.2236328-.5.5-.5h14.7363281c.2763672 0 .5.2236328.5.5zm0-6.2080078c0 .2763672-.2236328.5-.5.5h-14.7363281c-.2763672 0-.5-.2236328-.5-.5v-2.8818359c0-.2763672.2236328-.5.5-.5h14.7363281c.2763672 0 .5.2236328.5.5zm0-6.8125c0 .2763672-.2236328.5-.5.5h-22.1103515c-.2763672 0-.5-.2236328-.5-.5v-9.0898437c0-.2763672.2236328-.5.5-.5h22.1103515c.2763672 0 .5.2236328.5.5z" fill="#fd7850" fill-opacity="1" data-original-color="#000000ff" stroke="none" stroke-opacity="1"/><path d="m31.93 26.889h13.736v1.882h-13.736z" fill="#fd7850" fill-opacity="1" data-original-color="#000000ff" stroke="none" stroke-opacity="1"/></g></g></svg>