<svg viewBox="0 0 512 512" xmlns="http://www.w3.org/2000/svg" width="300" height="300" version="1.1" xmlns:xlink="http://www.w3.org/1999/xlink" xmlns:svgjs="http://svgjs.dev/svgjs"><g width="100%" height="100%" transform="matrix(1,0,0,1,0,0)"><g id="Layer_2" data-name="Layer 2"><g id="Layer_2_copy_5" data-name="Layer 2 copy 5"><g id="_14" data-name="14"><path d="m344.56 122.41h-177.12a45.08 45.08 0 0 0 -45 45v4.15h267.15v-4.15a45.08 45.08 0 0 0 -45.03-45zm-160.85 33.23h-26.33a8.2 8.2 0 1 1 0-16.4h26.33a8.2 8.2 0 0 1 0 16.4zm60.58 0h-26.29a8.2 8.2 0 0 1 0-16.4h26.33a8.2 8.2 0 1 1 0 16.4z" fill="#fd7850" fill-opacity="1" data-original-color="#000000ff" stroke="none" stroke-opacity="1"/><path d="m256 0c-141.38 0-256 114.62-256 256s114.62 256 256 256 256-114.62 256-256-114.62-256-256-256zm150 167.44v177.12a61.44 61.44 0 0 1 -61.44 61.44h-177.12a61.44 61.44 0 0 1 -61.44-61.44v-177.12a61.44 61.44 0 0 1 61.44-61.44h177.12a61.44 61.44 0 0 1 61.44 61.44z" fill="#fd7850" fill-opacity="1" data-original-color="#000000ff" stroke="none" stroke-opacity="1"/><path d="m122.41 344.56a45.08 45.08 0 0 0 45 45h177.15a45.08 45.08 0 0 0 45-45v-156.56h-267.15zm176-112.74a8 8 0 0 1 11.27-.12l43.79 42.88a8 8 0 0 1 0 11.39l-43.71 42.8a8 8 0 1 1 -11.15-11.39l37.89-37.1-38-37.19a8 8 0 0 1 -.05-11.27zm-71.91 87.56 44.79-85.68a8 8 0 0 1 14.13 7.39l-44.79 85.68a8 8 0 1 1 -14.13-7.39zm-68-44.8 43.79-42.88a8 8 0 0 1 11.15 11.39l-38 37.19 37.89 37.1a8 8 0 0 1 -11.15 11.39l-43.69-42.77a8 8 0 0 1 0-11.39z" fill="#fd7850" fill-opacity="1" data-original-color="#000000ff" stroke="none" stroke-opacity="1"/></g></g></g></g></svg>