<svg id="Layer_1" enable-background="new 0 0 512 512" height="300" viewBox="0 0 512 512" width="300" xmlns="http://www.w3.org/2000/svg" version="1.1" xmlns:xlink="http://www.w3.org/1999/xlink" xmlns:svgjs="http://svgjs.dev/svgjs"><g width="100%" height="100%" transform="matrix(1,0,0,1,0,0)"><g><path d="m403.947 117.621-296.134-.002c-6.542 0-11.813 5.321-11.813 11.861v182.685c0 6.542 5.031 11.836 11.57 11.836h103.248l-13.271 36h-19.073c-4.506 0-8.475 4.253-8.475 8.755v17.366c0 4.507 3.969 7.879 8.475 7.879h154.384c4.503 0 8.141-3.372 8.141-7.879v-17.366c0-4.502-3.638-8.755-8.144-8.755h-19.073l-13.271-36h103.249c6.541 0 12.24-5.294 12.24-11.834v-182.686c0-6.54-5.511-11.86-12.053-11.86zm-296.172 8.882 296.216.002c1.642 0 3.008 1.335 3.008 2.975v34.52h-301.999v-34.521c0-1.641 1.133-2.976 2.775-2.976zm224.225 242.497v16h-153v-16h19.218 2.443 110.009zm-27.669-9h-97.331l13.272-36h70.787zm99.429-45h-109.586-77.017-109.587c-1.64 0-2.57-1.194-2.57-2.836v-140.164h302v140.166c0 1.64-1.599 2.834-3.24 2.834z" fill="#fd7850" fill-opacity="1" data-original-color="#000000ff" stroke="none" stroke-opacity="1"/><path d="m218.123 208.344c-1.736-1.736-4.549-1.738-6.284 0-1.734 1.732-1.734 4.547 0 6.281l23.991 23.994-23.991 23.994c-1.734 1.733-1.734 4.548 0 6.281.868.868 2.005 1.302 3.142 1.302 1.138 0 2.274-.435 3.142-1.302l27.133-27.135c1.735-1.732 1.735-4.548 0-6.281z" fill="#fd7850" fill-opacity="1" data-original-color="#000000ff" stroke="none" stroke-opacity="1"/><path d="m153.647 208.344c-1.736-1.736-4.549-1.736-6.284 0l-27.133 27.134c-1.735 1.733-1.735 4.549 0 6.281l27.133 27.135c.868.868 2.004 1.302 3.142 1.302 1.137 0 2.275-.435 3.143-1.302 1.734-1.733 1.734-4.548 0-6.281l-23.992-23.994 23.992-23.994c1.733-1.733 1.733-4.549-.001-6.281z" fill="#fd7850" fill-opacity="1" data-original-color="#000000ff" stroke="none" stroke-opacity="1"/><path d="m195.75 190.07c-2.369-.644-4.806.772-5.441 3.143l-23.716 88.509c-.636 2.369.771 4.807 3.142 5.442.385.103.771.153 1.152.153 1.961 0 3.757-1.31 4.289-3.295l23.717-88.51c.634-2.368-.771-4.806-3.143-5.442z" fill="#fd7850" fill-opacity="1" data-original-color="#000000ff" stroke="none" stroke-opacity="1"/><path d="m387.959 186h-112.086c-2.454 0-4.443 2.046-4.443 4.5 0 2.453 1.989 4.5 4.443 4.5h112.086c2.454 0 4.444-2.047 4.444-4.5 0-2.454-1.99-4.5-4.444-4.5z" fill="#fd7850" fill-opacity="1" data-original-color="#000000ff" stroke="none" stroke-opacity="1"/><path d="m387.959 219h-112.086c-2.454 0-4.443 1.546-4.443 4s1.989 4 4.443 4h112.086c2.454 0 4.444-1.546 4.444-4s-1.99-4-4.444-4z" fill="#fd7850" fill-opacity="1" data-original-color="#000000ff" stroke="none" stroke-opacity="1"/><path d="m387.959 251h-112.086c-2.454 0-4.443 2.047-4.443 4.5 0 2.454 1.989 4.5 4.443 4.5h112.086c2.454 0 4.444-2.046 4.444-4.5 0-2.453-1.99-4.5-4.444-4.5z" fill="#fd7850" fill-opacity="1" data-original-color="#000000ff" stroke="none" stroke-opacity="1"/><path d="m387.959 283h-112.086c-2.454 0-4.443 2.047-4.443 4.5 0 2.454 1.989 4.5 4.443 4.5h112.086c2.454 0 4.444-2.046 4.444-4.5 0-2.453-1.99-4.5-4.444-4.5z" fill="#fd7850" fill-opacity="1" data-original-color="#000000ff" stroke="none" stroke-opacity="1"/><path d="m126.209 160.345c8.602 0 15.602-6.997 15.602-15.6s-7-15.6-15.602-15.6-15.601 6.998-15.601 15.6c0 8.603 6.999 15.6 15.601 15.6zm0-22.315c3.703 0 6.713 3.015 6.713 6.715 0 3.701-3.011 6.715-6.713 6.715s-6.714-3.014-6.714-6.715 3.011-6.715 6.714-6.715z" fill="#fd7850" fill-opacity="1" data-original-color="#000000ff" stroke="none" stroke-opacity="1"/><path d="m209.523 160.345c8.602 0 15.602-6.997 15.602-15.6s-7-15.6-15.602-15.6-15.602 6.998-15.602 15.6c0 8.603 7 15.6 15.602 15.6zm0-22.315c3.702 0 6.713 3.015 6.713 6.715 0 3.701-3.011 6.715-6.713 6.715s-6.714-3.014-6.714-6.715 3.012-6.715 6.714-6.715z" fill="#fd7850" fill-opacity="1" data-original-color="#000000ff" stroke="none" stroke-opacity="1"/><path d="m167.865 160.345c8.602 0 15.601-6.997 15.601-15.6s-6.999-15.6-15.601-15.6-15.601 6.998-15.601 15.6c0 8.603 7 15.6 15.601 15.6zm0-22.315c3.702 0 6.714 3.015 6.714 6.715 0 3.701-3.012 6.715-6.714 6.715s-6.714-3.014-6.714-6.715 3.012-6.715 6.714-6.715z" fill="#fd7850" fill-opacity="1" data-original-color="#000000ff" stroke="none" stroke-opacity="1"/></g><g><g><path d="m256 501c-135.093 0-245-109.907-245-245s109.907-245 245-245 245 109.907 245 245-109.907 245-245 245zm0-480.963c-130.111 0-235.963 105.852-235.963 235.963s105.852 235.963 235.963 235.963 235.963-105.852 235.963-235.963-105.852-235.963-235.963-235.963z" fill="#fd7850" fill-opacity="1" data-original-color="#000000ff" stroke="none" stroke-opacity="1"/></g></g></g></svg>