<svg id="Layer_1" enable-background="new 0 0 512 512" viewBox="0 0 512 512" xmlns="http://www.w3.org/2000/svg" width="300" height="300" version="1.1" xmlns:xlink="http://www.w3.org/1999/xlink" xmlns:svgjs="http://svgjs.dev/svgjs"><g width="100%" height="100%" transform="matrix(1,0,0,1,0,0)"><path d="m504.514 70.019h-16.478c-.339.519-.739 1.008-1.178 1.467l-12.066 12.506-3.054 3.154-41.968 43.494-13.493 13.983h81.241v249.182h-483.035v-249.182h302.937l13.494-13.983 15.739-16.318h-132.471c-3.852 0-6.986-3.134-6.986-6.996 0-3.852 3.134-6.986 6.986-6.986h145.964l15.769-16.348 13.484-13.973h-381.913c-3.852 0-6.986 3.124-6.986 6.986v323.786c0 3.862 3.134 6.986 6.986 6.986h180.557v57.118h-42.207c-3.862 0-6.986 3.134-6.986 6.996 0 3.852 3.124 6.986 6.986 6.986h220.329c3.862 0 6.986-3.134 6.986-6.986 0-3.862-3.124-6.996-6.986-6.996h-42.207v-57.118h180.557c3.852 0 6.986-3.124 6.986-6.986v-323.786c-.001-3.862-3.135-6.986-6.987-6.986zm-424.939 37.307c0-3.852 3.134-6.986 6.986-6.986h.12c3.853 0 6.986 3.134 6.986 6.986 0 3.863-3.134 6.996-6.986 6.996h-.12c-3.852 0-6.986-3.134-6.986-6.996zm27.157 0c0-3.852 3.134-6.986 6.996-6.986h.11c3.862 0 6.986 3.134 6.986 6.986 0 3.863-3.124 6.996-6.986 6.996h-.11c-3.862 0-6.996-3.134-6.996-6.996zm27.167 0c0-3.852 3.124-6.986 6.986-6.986h.11c3.862 0 6.986 3.134 6.986 6.986 0 3.863-3.124 6.996-6.986 6.996h-.11c-3.862 0-6.986-3.134-6.986-6.996zm32.746 228.792-39.193-41.648 24.043-25.53 30.52 32.466v34.712zm-67.298-51.11 48.106 51.11h-96.192l15.49-16.508zm82.668-4.012-25.43-27.037c-1.317-1.407-3.164-2.206-5.09-2.206s-3.773.798-5.09 2.206l-28.545 30.331-13.424-14.262c-1.317-1.407-3.154-2.206-5.08-2.206s-3.773.798-5.09 2.206l-37.696 40.001-8.364 8.913v-116.642h133.808v78.696zm288.795-39.053h-229.292c-3.862 0-6.986-3.134-6.986-6.986v-39.643c0-3.852 3.124-6.986 6.986-6.986h55.262l-1.986 13.973-1.467 10.34c-.309 2.216.459 4.451 2.066 6.008 1.317 1.268 3.064 1.956 4.851 1.956.409 0 .818-.03 1.228-.1l47.986-8.553c1.447-.25 2.774-.958 3.802-2.026l7.356-7.625 13.484-13.973h96.711c3.862 0 6.996 3.134 6.996 6.986v39.643c-.001 3.852-3.135 6.986-6.997 6.986zm-151.363 36.596-28.327 28.326 28.325 28.301c2.73 2.728 2.732 7.152.004 9.883-1.365 1.365-3.154 2.049-4.943 2.049-1.788 0-3.575-.682-4.939-2.045l-33.27-33.243c-1.311-1.311-2.048-3.089-2.049-4.942s.736-3.632 2.047-4.942l33.27-33.27c2.728-2.728 7.153-2.728 9.882 0 2.729 2.729 2.729 7.154 0 9.883zm73.437 56.628 28.325-28.301-28.327-28.326c-2.729-2.729-2.729-7.154 0-9.883 2.728-2.729 7.153-2.729 9.882 0l33.27 33.27c1.311 1.311 2.047 3.089 2.047 4.942s-.737 3.632-2.049 4.942l-33.27 33.243c-1.364 1.363-3.152 2.045-4.939 2.045-1.789 0-3.578-.683-4.943-2.049-2.728-2.731-2.726-7.155.004-9.883zm-17.737-70.952c3.526 1.57 5.112 5.701 3.542 9.226l-32.28 72.509c-1.158 2.602-3.712 4.147-6.388 4.147-.95 0-1.915-.194-2.838-.605-3.526-1.57-5.112-5.7-3.542-9.226l32.28-72.509c1.569-3.527 5.701-5.112 9.226-3.542zm-53.006-74.61 11.378 10.989-25.001 4.451 1.178-8.324.1-.689 2.295-16.119 9.721 9.382.259.259zm45.95-77.379 29.213-30.281 28.434-29.452 9.641 9.302-108.767 112.71-9.641-9.292 51.06-52.916zm81.969-55.691-14.621-14.103 8.982-9.312c.419.22.968.569 1.537 1.128l28.374 27.347c.579.569.948 1.098 1.188 1.517l-6.667 6.907-2.316 2.405-2.495-2.405-13.862-13.374zm6.767 25.94-48.445 50.212-60.332 62.518-11.388-10.989 108.787-112.72 10.819 10.44.299.279c.09.08.19.16.289.24z" fill="#fd7850" fill-opacity="1" data-original-color="#000000ff" stroke="none" stroke-opacity="1"/></g></svg>