<svg id="Solid" height="300" viewBox="0 0 64 64" width="300" xmlns="http://www.w3.org/2000/svg" version="1.1" xmlns:xlink="http://www.w3.org/1999/xlink" xmlns:svgjs="http://svgjs.dev/svgjs"><g width="100%" height="100%" transform="matrix(1,0,0,1,0,0)"><path d="m3 47a4 4 0 0 0 4 4h50a4 4 0 0 0 4-4v-3.25h-58z" fill="#fd7850" fill-opacity="1" data-original-color="#000000ff" stroke="none" stroke-opacity="1"/><path d="m19 60h26v4h-26z" fill="#fd7850" fill-opacity="1" data-original-color="#000000ff" stroke="none" stroke-opacity="1"/><path d="m25 52.5h14v6h-14z" fill="#fd7850" fill-opacity="1" data-original-color="#000000ff" stroke="none" stroke-opacity="1"/><path d="m57 7h-.25v29a2.7528 2.7528 0 0 1 -2.75 2.75h-44a2.7528 2.7528 0 0 1 -2.75-2.75v-29h-.25a4 4 0 0 0 -4 4v31.25h58v-31.25a4 4 0 0 0 -4-4z" fill="#fd7850" fill-opacity="1" data-original-color="#000000ff" stroke="none" stroke-opacity="1"/><path d="m55.25 3a1.2511 1.2511 0 0 0 -1.25-1.25h-44a1.2511 1.2511 0 0 0 -1.25 1.25v5.25h46.5zm-42.25 3a1 1 0 1 1 1-1 1 1 0 0 1 -1 1zm4 0a1 1 0 1 1 1-1 1 1 0 0 1 -1 1zm4 0a1 1 0 1 1 1-1 1 1 0 0 1 -1 1z" fill="#fd7850" fill-opacity="1" data-original-color="#000000ff" stroke="none" stroke-opacity="1"/><path d="m20.189 14.75h-6.378l3.189 3.189z" fill="#fd7850" fill-opacity="1" data-original-color="#000000ff" stroke="none" stroke-opacity="1"/><path d="m36.25 22.189v-6.378l-3.189 3.189z" fill="#fd7850" fill-opacity="1" data-original-color="#000000ff" stroke="none" stroke-opacity="1"/><path d="m35.189 14.75h-6.378l3.189 3.189z" fill="#fd7850" fill-opacity="1" data-original-color="#000000ff" stroke="none" stroke-opacity="1"/><path d="m28.811 23.25h6.378l-3.189-3.189z" fill="#fd7850" fill-opacity="1" data-original-color="#000000ff" stroke="none" stroke-opacity="1"/><path d="m13.811 23.25h6.378l-3.189-3.189z" fill="#fd7850" fill-opacity="1" data-original-color="#000000ff" stroke="none" stroke-opacity="1"/><path d="m27.75 15.811v6.378l3.189-3.189z" fill="#fd7850" fill-opacity="1" data-original-color="#000000ff" stroke="none" stroke-opacity="1"/><path d="m21.25 22.189v-6.378l-3.189 3.189z" fill="#fd7850" fill-opacity="1" data-original-color="#000000ff" stroke="none" stroke-opacity="1"/><path d="m51.25 22.189v-6.378l-3.189 3.189z" fill="#fd7850" fill-opacity="1" data-original-color="#000000ff" stroke="none" stroke-opacity="1"/><path d="m43.811 23.25h6.378l-3.189-3.189z" fill="#fd7850" fill-opacity="1" data-original-color="#000000ff" stroke="none" stroke-opacity="1"/><path d="m10 37.25h44a1.2511 1.2511 0 0 0 1.25-1.25v-26.25h-46.5v26.25a1.2511 1.2511 0 0 0 1.25 1.25zm31.25-23.25a.75.75 0 0 1 .75-.75h10a.75.75 0 0 1 .75.75v10a.75.75 0 0 1 -.75.75h-10a.75.75 0 0 1 -.75-.75zm.75 14.25h10a.75.75 0 0 1 0 1.5h-10a.75.75 0 0 1 0-1.5zm0 4h10a.75.75 0 0 1 0 1.5h-10a.75.75 0 0 1 0-1.5zm-15.75-18.25a.75.75 0 0 1 .75-.75h10a.75.75 0 0 1 .75.75v10a.75.75 0 0 1 -.75.75h-10a.75.75 0 0 1 -.75-.75zm.75 14.25h10a.75.75 0 0 1 0 1.5h-10a.75.75 0 0 1 0-1.5zm0 4h10a.75.75 0 0 1 0 1.5h-10a.75.75 0 0 1 0-1.5zm-15.75-18.25a.75.75 0 0 1 .75-.75h10a.75.75 0 0 1 .75.75v10a.75.75 0 0 1 -.75.75h-10a.75.75 0 0 1 -.75-.75zm.75 14.25h10a.75.75 0 0 1 0 1.5h-10a.75.75 0 0 1 0-1.5zm0 4h10a.75.75 0 0 1 0 1.5h-10a.75.75 0 0 1 0-1.5z" fill="#fd7850" fill-opacity="1" data-original-color="#000000ff" stroke="none" stroke-opacity="1"/><path d="m50.189 14.75h-6.378l3.189 3.189z" fill="#fd7850" fill-opacity="1" data-original-color="#000000ff" stroke="none" stroke-opacity="1"/><path d="m42.75 15.811v6.378l3.189-3.189z" fill="#fd7850" fill-opacity="1" data-original-color="#000000ff" stroke="none" stroke-opacity="1"/><path d="m12.75 15.811v6.378l3.189-3.189z" fill="#fd7850" fill-opacity="1" data-original-color="#000000ff" stroke="none" stroke-opacity="1"/></g></svg>