<svg id="Layer_3" height="300" viewBox="0 0 64 64" width="300" xmlns="http://www.w3.org/2000/svg" data-name="Layer 3" version="1.1" xmlns:xlink="http://www.w3.org/1999/xlink" xmlns:svgjs="http://svgjs.dev/svgjs"><g width="100%" height="100%" transform="matrix(1,0,0,1,0,0)"><path d="m32 15h20v2h-20z" fill="#fd7850" fill-opacity="1" data-original-color="#000000ff" stroke="none" stroke-opacity="1"/><path d="m47.314 31.135.791-1.582a1 1 0 0 1 .448-.448l1.582-.791-3.761-.939z" fill="#fd7850" fill-opacity="1" data-original-color="#000000ff" stroke="none" stroke-opacity="1"/><path d="m19 15a7 7 0 1 0 7 7 7.008 7.008 0 0 0 -7-7zm2 4h2v2h-2zm-6 0h2v2h-2zm8.121 6.293a5.828 5.828 0 0 1 -8.242 0l-.586-.586 1.414-1.414.586.586a3.829 3.829 0 0 0 5.414 0l.586-.586 1.414 1.414z" fill="#fd7850" fill-opacity="1" data-original-color="#000000ff" stroke="none" stroke-opacity="1"/><path d="m56 3h-48v6h48zm-14 4h-32v-2h32zm4 0h-2v-2h2zm4 0h-2v-2h2zm4 0h-2v-2h2z" fill="#fd7850" fill-opacity="1" data-original-color="#000000ff" stroke="none" stroke-opacity="1"/><path d="m56 11h-48v26h48zm-37 20a9 9 0 1 1 9-9 9.01 9.01 0 0 1 -9 9zm23 4h-12v-2h12zm0-4h-12v-2h12zm0-4h-12v-2h12zm0-4h-12v-2h12zm11.447 5.9-3.7 1.85-1.85 3.7a1 1 0 0 1 -1.865-.2l-2-8a1 1 0 0 1 1.212-1.213l8 2a1 1 0 0 1 .205 1.865zm.553-10.9a1 1 0 0 1 -1 1h-22a1 1 0 0 1 -1-1v-4a1 1 0 0 1 1-1h22a1 1 0 0 1 1 1z" fill="#fd7850" fill-opacity="1" data-original-color="#000000ff" stroke="none" stroke-opacity="1"/><path d="m3 46a3 3 0 0 0 3 3h52a3 3 0 0 0 3-3v-3h-58zm25-1h8v2h-8z" fill="#fd7850" fill-opacity="1" data-original-color="#000000ff" stroke="none" stroke-opacity="1"/><path d="m28 51h8v4h-8z" fill="#fd7850" fill-opacity="1" data-original-color="#000000ff" stroke="none" stroke-opacity="1"/><path d="m40 57h-16a5.008 5.008 0 0 0 -4.9 4h25.8a5.008 5.008 0 0 0 -4.9-4z" fill="#fd7850" fill-opacity="1" data-original-color="#000000ff" stroke="none" stroke-opacity="1"/><path d="m58 7v31a1 1 0 0 1 -1 1h-50a1 1 0 0 1 -1-1v-31a3 3 0 0 0 -3 3v31h58v-31a3 3 0 0 0 -3-3z" fill="#fd7850" fill-opacity="1" data-original-color="#000000ff" stroke="none" stroke-opacity="1"/></g></svg>