<svg version="1.1" id="svg3246" xml:space="preserve" width="300" height="300" viewBox="0 0 682.66669 682.66669" xmlns="http://www.w3.org/2000/svg" xmlns:svg="http://www.w3.org/2000/svg" xmlns:xlink="http://www.w3.org/1999/xlink" xmlns:svgjs="http://svgjs.dev/svgjs"><g width="100%" height="100%" transform="matrix(1,0,0,1,0,0)"><defs id="defs3250"><clipPath clipPathUnits="userSpaceOnUse" id="clipPath3260"><path d="M 0,512 H 512 V 0 H 0 Z" id="path3258" fill="#fd7850" fill-opacity="1" data-original-color="#000000ff" stroke="none" stroke-opacity="1"/></clipPath></defs><g id="g3252" transform="matrix(1.3333333,0,0,-1.3333333,0,682.66667)"><g id="g3254"><g id="g3256" clip-path="url(#clipPath3260)"><g id="g3262" transform="translate(93.9893,462)"><path d="m 0,0 h -61.489 c -13.807,0 -25,-11.193 -25,-25 v -362 c 0,-13.807 11.193,-25 25,-25 h 447 c 13.806,0 25,11.193 25,25 v 199.915" style="stroke-linecap: round; stroke-linejoin: round; stroke-miterlimit: 10; stroke-dasharray: none;" id="path3264" fill="none" fill-opacity="1" stroke="#fd7850" stroke-opacity="1" data-original-stroke-color="#000000ff" stroke-width="15" data-original-stroke-width="15"/></g><g id="g3266" transform="translate(504.5,310.085)"><path d="m 0,0 v 126.915 c 0,13.807 -11.193,25 -25,25 h -350.436" style="stroke-linecap: round; stroke-linejoin: round; stroke-miterlimit: 10; stroke-dasharray: none;" id="path3268" fill="none" fill-opacity="1" stroke="#fd7850" stroke-opacity="1" data-original-stroke-color="#000000ff" stroke-width="15" data-original-stroke-width="15"/></g><g id="g3270" transform="translate(79.7446,414)"><path d="m 0,0 c 0,8.284 -6.716,15 -15,15 -8.284,0 -15,-6.716 -15,-15 0,-8.284 6.716,-15 15,-15 8.284,0 15,6.716 15,15 z" style="stroke-linecap: round; stroke-linejoin: round; stroke-miterlimit: 10; stroke-dasharray: none;" id="path3272" fill="none" fill-opacity="1" stroke="#fd7850" stroke-opacity="1" data-original-stroke-color="#000000ff" stroke-width="15" data-original-stroke-width="15"/></g><g id="g3274" transform="translate(139.7446,414)"><path d="m 0,0 c 0,8.284 -6.716,15 -15,15 -8.284,0 -15,-6.716 -15,-15 0,-8.284 6.716,-15 15,-15 8.284,0 15,6.716 15,15 z" style="stroke-linecap: round; stroke-linejoin: round; stroke-miterlimit: 10; stroke-dasharray: none;" id="path3276" fill="none" fill-opacity="1" stroke="#fd7850" stroke-opacity="1" data-original-stroke-color="#000000ff" stroke-width="15" data-original-stroke-width="15"/></g><g id="g3278" transform="translate(199.7446,414)"><path d="m 0,0 c 0,8.284 -6.716,15 -15,15 -8.284,0 -15,-6.716 -15,-15 0,-8.284 6.716,-15 15,-15 8.284,0 15,6.716 15,15 z" style="stroke-linecap: round; stroke-linejoin: round; stroke-miterlimit: 10; stroke-dasharray: none;" id="path3280" fill="none" fill-opacity="1" stroke="#fd7850" stroke-opacity="1" data-original-stroke-color="#000000ff" stroke-width="15" data-original-stroke-width="15"/></g><g id="g3282" transform="translate(7.5,368.5)"><path d="M 0,0 H 496" style="stroke-linecap: round; stroke-linejoin: round; stroke-miterlimit: 10; stroke-dasharray: none;" id="path3284" fill="none" fill-opacity="1" stroke="#fd7850" stroke-opacity="1" data-original-stroke-color="#000000ff" stroke-width="15" data-original-stroke-width="15"/></g><g id="g3286" transform="translate(263.5,399)"><path d="m 0,0 c -8.284,0 -15,6.716 -15,15 0,8.284 6.716,15 15,15 h 185 c 8.284,0 15,-6.716 15,-15 0,-8.284 -6.716,-15 -15,-15 z" style="stroke-linecap: round; stroke-linejoin: round; stroke-miterlimit: 10; stroke-dasharray: none;" id="path3288" fill="none" fill-opacity="1" stroke="#fd7850" stroke-opacity="1" data-original-stroke-color="#000000ff" stroke-width="15" data-original-stroke-width="15"/></g><g id="g3290" transform="translate(431.8857,170.8672)"><path d="m 0,0 c 0.497,1.312 0.967,2.638 1.41,3.976 1.397,4.217 5.338,7.064 9.781,7.064 h 11.112 c 5.694,0 10.311,4.617 10.311,10.312 v 29.051 c 0,5.695 -4.617,10.312 -10.311,10.312 H 11.191 c -4.442,0 -8.384,2.847 -9.781,7.064 -1.556,4.698 -3.446,9.244 -5.641,13.609 -2.001,3.976 -1.236,8.783 1.912,11.93 l 7.861,7.861 c 4.026,4.027 4.026,10.556 0,14.583 l -20.543,20.543 c -4.027,4.027 -10.556,4.027 -14.583,0 l -7.861,-7.861 c -3.147,-3.147 -7.954,-3.913 -11.93,-1.913 -4.365,2.197 -8.911,4.087 -13.609,5.642 -4.217,1.397 -7.064,5.339 -7.064,9.782 v 11.111 c 0,5.695 -4.617,10.311 -10.311,10.311 h -29.052 c -5.695,0 -10.313,-4.616 -10.313,-10.311 v -11.111 c 0,-4.443 -2.846,-8.385 -7.063,-9.782 -1.059,-0.35 -2.109,-0.717 -3.152,-1.102" style="stroke-linecap: round; stroke-linejoin: round; stroke-miterlimit: 10; stroke-dasharray: none;" id="path3292" fill="none" fill-opacity="1" stroke="#fd7850" stroke-opacity="1" data-original-stroke-color="#000000ff" stroke-width="15" data-original-stroke-width="15"/></g><g id="g3294" transform="translate(241.9272,242.1255)"><path d="m 0,0 c -0.428,-1.15 -0.836,-2.31 -1.223,-3.479 -1.397,-4.218 -5.339,-7.064 -9.781,-7.064 h -11.111 c -5.696,0 -10.312,-4.617 -10.312,-10.312 v -29.052 c 0,-5.695 4.616,-10.311 10.312,-10.311 h 11.111 c 4.442,0 8.384,-2.847 9.781,-7.064 1.556,-4.698 3.446,-9.244 5.642,-13.61 2,-3.976 1.234,-8.782 -1.913,-11.929 l -7.861,-7.862 c -4.027,-4.026 -4.027,-10.555 0,-14.583 l 20.543,-20.542 c 4.027,-4.027 10.556,-4.027 14.583,0 l 7.861,7.861 c 3.147,3.147 7.954,3.912 11.93,1.912 4.365,-2.196 8.911,-4.086 13.609,-5.642 4.217,-1.396 7.064,-5.338 7.064,-9.781 v -11.111 c 0,-5.695 4.617,-10.312 10.311,-10.312 h 29.052 c 5.695,0 10.313,4.617 10.313,10.312 v 11.111 c 0,4.443 2.846,8.385 7.063,9.781 1.308,0.433 2.604,0.892 3.887,1.376" style="stroke-linecap: round; stroke-linejoin: round; stroke-miterlimit: 10; stroke-dasharray: none;" id="path3296" fill="none" fill-opacity="1" stroke="#fd7850" stroke-opacity="1" data-original-stroke-color="#000000ff" stroke-width="15" data-original-stroke-width="15"/></g><g id="g3298" transform="translate(349.998,268.5864)"><path d="m 0,0 c -4.06,0.826 -8.263,1.26 -12.565,1.26 -10.85,0 -21.056,-2.757 -29.956,-7.609" style="stroke-linecap: round; stroke-linejoin: round; stroke-miterlimit: 10; stroke-dasharray: none;" id="path3300" fill="none" fill-opacity="1" stroke="#fd7850" stroke-opacity="1" data-original-stroke-color="#000000ff" stroke-width="15" data-original-stroke-width="15"/></g><g id="g3302" transform="translate(392.5,177.5)"><path d="m 0,0 c 4.912,8.941 7.602,18.755 7.602,29.677 0,17.854 -7.466,33.965 -19.447,45.379" style="stroke-linecap: round; stroke-linejoin: round; stroke-miterlimit: 10; stroke-dasharray: none;" id="path3304" fill="none" fill-opacity="1" stroke="#fd7850" stroke-opacity="1" data-original-stroke-color="#000000ff" stroke-width="15" data-original-stroke-width="15"/></g><g id="g3306" transform="translate(281.5,236.5)"><path d="m 0,0 c -4.485,-8.635 -6.737,-18.92 -6.737,-29.323 0,-34.612 28.057,-62.67 62.67,-62.67 10.424,0 20.419,2.49 29.067,6.993" style="stroke-linecap: round; stroke-linejoin: round; stroke-miterlimit: 10; stroke-dasharray: none;" id="path3308" fill="none" fill-opacity="1" stroke="#fd7850" stroke-opacity="1" data-original-stroke-color="#000000ff" stroke-width="15" data-original-stroke-width="15"/></g><g id="g3310" transform="translate(312.5547,205.7466)"><path d="m 0,0 -2.113,2.114 -28.799,28.799 c -14.809,-5.277 -31.982,-1.99 -43.838,9.866 -11.184,11.184 -14.746,27.107 -10.678,41.306 0.625,2.184 3.395,2.866 5.001,1.26 l 11.419,-11.419 c 6.22,-6.22 16.305,-6.22 22.525,0 6.219,6.22 6.22,16.305 0,22.525 l -11.419,11.419 c -1.605,1.606 -0.924,4.376 1.258,5.001 14.145,4.052 29.998,0.535 41.178,-10.548 0.219,-0.216 0.438,-0.438 0.653,-0.661 C -3.326,87.769 -0.279,70.621 -5.652,55.938 L 23.576,26.709 59.694,-9.409 79.385,-29.1 c 14.683,5.373 31.831,2.326 43.724,-9.16 0.223,-0.215 0.446,-0.434 0.661,-0.653 11.084,-11.18 14.6,-27.033 10.548,-41.178 -0.625,-2.182 -3.395,-2.864 -5.001,-1.258 l -11.419,11.419 c -6.219,6.22 -16.304,6.22 -22.525,-10e-4 -6.22,-6.219 -6.22,-16.304 0,-22.525 l 11.419,-11.418 c 1.605,-1.605 0.924,-4.376 -1.259,-5.001 -14.2,-4.068 -30.122,-0.506 -41.306,10.678 -11.857,11.856 -15.558,29.142 -10.282,43.95 L 35.19,-35.19 24.702,-24.702" style="stroke-linecap: round; stroke-linejoin: round; stroke-miterlimit: 10; stroke-dasharray: none;" id="path3312" fill="none" fill-opacity="1" stroke="#fd7850" stroke-opacity="1" data-original-stroke-color="#000000ff" stroke-width="15" data-original-stroke-width="15"/></g><g id="g3314" transform="translate(49.5,251.7446)"><path d="M 0,0 H 120" style="stroke-linecap: round; stroke-linejoin: round; stroke-miterlimit: 10; stroke-dasharray: none;" id="path3316" fill="none" fill-opacity="1" stroke="#fd7850" stroke-opacity="1" data-original-stroke-color="#000000ff" stroke-width="15" data-original-stroke-width="15"/></g><g id="g3318" transform="translate(117.1274,221.7446)"><path d="M 0,0 H 52.373" style="stroke-linecap: round; stroke-linejoin: round; stroke-miterlimit: 10; stroke-dasharray: none;" id="path3320" fill="none" fill-opacity="1" stroke="#fd7850" stroke-opacity="1" data-original-stroke-color="#000000ff" stroke-width="15" data-original-stroke-width="15"/></g><g id="g3322" transform="translate(49.5,221.7446)"><path d="M 0,0 H 37.627" style="stroke-linecap: round; stroke-linejoin: round; stroke-miterlimit: 10; stroke-dasharray: none;" id="path3324" fill="none" fill-opacity="1" stroke="#fd7850" stroke-opacity="1" data-original-stroke-color="#000000ff" stroke-width="15" data-original-stroke-width="15"/></g><g id="g3326" transform="translate(49.5,191.7446)"><path d="M 0,0 H 120" style="stroke-linecap: round; stroke-linejoin: round; stroke-miterlimit: 10; stroke-dasharray: none;" id="path3328" fill="none" fill-opacity="1" stroke="#fd7850" stroke-opacity="1" data-original-stroke-color="#000000ff" stroke-width="15" data-original-stroke-width="15"/></g><g id="g3330" transform="translate(98.314,161.7446)"><path d="M 0,0 H 71.186" style="stroke-linecap: round; stroke-linejoin: round; stroke-miterlimit: 10; stroke-dasharray: none;" id="path3332" fill="none" fill-opacity="1" stroke="#fd7850" stroke-opacity="1" data-original-stroke-color="#000000ff" stroke-width="15" data-original-stroke-width="15"/></g><g id="g3334" transform="translate(49.5,161.7446)"><path d="M 0,0 H 18.814" style="stroke-linecap: round; stroke-linejoin: round; stroke-miterlimit: 10; stroke-dasharray: none;" id="path3336" fill="none" fill-opacity="1" stroke="#fd7850" stroke-opacity="1" data-original-stroke-color="#000000ff" stroke-width="15" data-original-stroke-width="15"/></g></g></g></g></g></svg>