<svg xmlns="http://www.w3.org/2000/svg" id="Layer_3" data-name="Layer 3" viewBox="0 0 64 64" width="300" height="300" version="1.1" xmlns:xlink="http://www.w3.org/1999/xlink" xmlns:svgjs="http://svgjs.dev/svgjs"><g width="100%" height="100%" transform="matrix(1,0,0,1,0,0)"><path d="M38,20a1,1,0,0,0,.908-1.419l-6-13a1,1,0,0,0-1.816,0l-6,13A1,1,0,0,0,26,20a2,2,0,0,1,2,2v3H26v2h2.133l.877,6.142,1.98-.284L30.153,27h3.694l-.837,5.858,1.98.284L35.867,27H38V25H36V22A2,2,0,0,1,38,20Zm-5-3a1,1,0,1,1-1-1A1,1,0,0,1,33,17Zm-3,8V22a4.005,4.005,0,0,0-2.561-3.732L31,10.553v3.631a3,3,0,1,0,2,0V10.553l3.561,7.715A4.005,4.005,0,0,0,34,22v3Z" fill="#fd7850" fill-opacity="1" data-original-color="#000000ff" stroke="none" stroke-opacity="1"/><path d="M42,12h6a1,1,0,0,0,1-1V5H47V8.343A19,19,0,0,0,15.542,10.5l1.732,1A16.993,16.993,0,0,1,45.737,10H42Z" fill="#fd7850" fill-opacity="1" data-original-color="#000000ff" stroke="none" stroke-opacity="1"/><path d="M9,26V52a3,3,0,0,0,3,3H28.382l-1,2H23a3,3,0,0,0-3,3v2a1,1,0,0,0,1,1H43a1,1,0,0,0,1-1V60a3,3,0,0,0-3-3H36.618l-1-2H52a3,3,0,0,0,3-3V26a3,3,0,0,0-3-3H50.739a18.5,18.5,0,0,0-.821-9.333l-1.885.666A17,17,0,0,1,34.64,36.774l3.067-3.067-1.414-1.414-5,5a1,1,0,0,0,.26,1.6l6,3,.894-1.79-2.9-1.449A19.037,19.037,0,0,0,50.31,25H52a1,1,0,0,1,1,1V52a1,1,0,0,1-1,1H12a1,1,0,0,1-1-1V26a1,1,0,0,1,1-1h1.662A18.914,18.914,0,0,0,28.834,38.737l.332-1.972A16.939,16.939,0,0,1,15,20a17.149,17.149,0,0,1,.3-3.159l1.8,3.606,1.79-.894-3-6a1,1,0,0,0-1.6-.26l-5,5,1.414,1.414L13.219,17.2A18.174,18.174,0,0,0,13.248,23H12A3,3,0,0,0,9,26ZM42,60v1H22V60a1,1,0,0,1,1-1H41A1,1,0,0,1,42,60Zm-7.618-3H29.618l1-2h2.764Z" fill="#fd7850" fill-opacity="1" data-original-color="#000000ff" stroke="none" stroke-opacity="1"/><path d="M12,45v6a1,1,0,0,0,1,1H51a1,1,0,0,0,1-1V45a1,1,0,0,0-1-1H13A1,1,0,0,0,12,45Zm24,5H34V46h2Zm2-4h2v4H38Zm-6,4H30V46h2Zm-4,0H26V46h2Zm-4,0H22V46h2Zm-4,0H18V46h2Zm30,0H42V46h8ZM14,46h2v4H14Z" fill="#fd7850" fill-opacity="1" data-original-color="#000000ff" stroke="none" stroke-opacity="1"/></g></svg>